<?xml version="1.0" encoding="UTF-8"?>
<!DOCTYPE svg PUBLIC "-//W3C//DTD SVG 1.1//EN" "http://www.w3.org/Graphics/SVG/1.1/DTD/svg11.dtd">
<svg xmlns="http://www.w3.org/2000/svg" version="1.1" width="444px" height="424px" style="shape-rendering:geometricPrecision; text-rendering:geometricPrecision; image-rendering:optimizeQuality; fill-rule:evenodd; clip-rule:evenodd" xmlns:xlink="http://www.w3.org/1999/xlink">
<g><path style="opacity:1" fill="#63367c" d="M 398.5,36.5 C 401.332,38.4065 402.166,41.0732 401,44.5C 396.814,54.8652 392.647,65.1986 388.5,75.5C 386.991,76.8595 386.324,76.3595 386.5,74C 387.054,72.4495 387.72,70.9495 388.5,69.5C 388.167,68.8333 387.833,68.1667 387.5,67.5C 385.591,68.3482 383.591,68.6816 381.5,68.5C 381.719,69.675 381.386,70.675 380.5,71.5C 379.278,69.0914 379.945,67.258 382.5,66C 380.744,65.8595 379.078,66.3595 377.5,67.5C 375.483,71.2728 373.483,74.9395 371.5,78.5C 373.796,70.4069 376.796,62.5736 380.5,55C 379.271,54.2189 377.938,53.7189 376.5,53.5C 371.243,55.4266 365.909,55.7599 360.5,54.5C 358.702,51.7107 358.202,48.7107 359,45.5C 366.618,41.9456 374.452,38.7789 382.5,36C 388.016,35.1826 393.35,35.3493 398.5,36.5 Z"/></g>
<g><path style="opacity:1" fill="#693385" d="M 398.5,36.5 C 397.571,37.3149 396.571,38.1482 395.5,39C 396.448,39.4828 397.448,39.6495 398.5,39.5C 398.663,41.8568 398.497,44.1902 398,46.5C 397.667,46.1667 397.333,45.8333 397,45.5C 395.333,46.1667 393.667,46.8333 392,47.5C 392.321,51.2816 392.988,54.9483 394,58.5C 392.513,60.9852 390.679,63.1518 388.5,65C 384.165,65.3423 383.665,64.1756 387,61.5C 388.516,64.0515 389.349,63.7181 389.5,60.5C 388.448,60.6495 387.448,60.4828 386.5,60C 387.731,58.8173 387.731,57.6507 386.5,56.5C 385.719,57.7287 385.219,59.062 385,60.5C 384,60.8333 383,61.1667 382,61.5C 381.667,58.8333 381.333,56.1667 381,53.5C 380.5,53 380,52.5 379.5,52C 373.833,52.3333 368.167,52.6667 362.5,53C 361.002,49.1534 362.169,46.3201 366,44.5C 366.667,45.1667 367.333,45.8333 368,46.5C 369.167,44.6667 370.667,43.1667 372.5,42C 378.269,40.1059 384.269,39.1059 390.5,39C 388.1,38.8142 385.766,38.3142 383.5,37.5C 388.456,36.5059 393.456,36.1725 398.5,36.5 Z"/></g>
<g><path style="opacity:1" fill="#200f0c" d="M 320.5,152.5 C 318.963,155.602 316.963,158.268 314.5,160.5C 304.861,156.015 295.861,150.515 287.5,144C 283.576,142.762 282.243,143.929 283.5,147.5C 282.833,147.5 282.167,147.5 281.5,147.5C 279.315,147.296 277.315,146.63 275.5,145.5C 274.365,143.787 272.698,143.12 270.5,143.5C 268.981,142.59 267.315,141.757 265.5,141C 267.903,141.423 270.237,141.256 272.5,140.5C 278.5,140.5 284.5,140.5 290.5,140.5C 290.507,134.845 288.174,130.511 283.5,127.5C 282.942,126.21 281.942,125.377 280.5,125C 264.515,123.202 248.515,123.035 232.5,124.5C 232.611,123.883 232.944,123.383 233.5,123C 239.167,122.667 244.833,122.333 250.5,122C 249.833,121.667 249.167,121.333 248.5,121C 253.773,120.222 259.107,119.555 264.5,119C 264.833,118.667 265.167,118.333 265.5,118C 263.583,115.577 261.25,113.744 258.5,112.5C 254.184,109.86 249.851,107.194 245.5,104.5C 238.314,99.7387 230.647,95.7387 222.5,92.5C 221.292,91.7659 219.959,91.4326 218.5,91.5C 216.236,90.7814 213.903,90.448 211.5,90.5C 205.303,89.9496 199.303,88.6163 193.5,86.5C 192.167,86.5 190.833,86.5 189.5,86.5C 182.747,84.7789 175.747,84.1122 168.5,84.5C 160.085,84.2831 151.752,84.9497 143.5,86.5C 139.427,86.8079 135.427,87.4746 131.5,88.5C 131.5,86.5 131.5,84.5 131.5,82.5C 131.5,82.1667 131.5,81.8333 131.5,81.5C 134.139,79.162 133.806,76.9953 130.5,75C 128.527,74.5045 126.527,74.3379 124.5,74.5C 124.67,71.7338 125.336,69.0672 126.5,66.5C 125.76,63.101 123.594,61.7676 120,62.5C 118.014,62.5687 116.514,63.2353 115.5,64.5C 114.245,66.6408 112.578,67.3074 110.5,66.5C 109.618,63.2094 108.952,59.876 108.5,56.5C 105.428,56.1826 102.428,56.5159 99.5,57.5C 96.9201,60.0629 94.2535,60.0629 91.5,57.5C 91.5,56.1667 91.5,54.8333 91.5,53.5C 85.724,51.9393 82.224,53.9393 81,59.5C 79.6288,61.0414 78.1288,62.3747 76.5,63.5C 72.7116,56.544 68.7116,56.2107 64.5,62.5C 63.5269,64.9479 63.1936,67.6146 63.5,70.5C 60.6067,70.9689 58.6067,69.9689 57.5,67.5C 53.0189,66.3516 48.3522,66.1849 43.5,67C 43.0005,69.5212 41.6672,71.3545 39.5,72.5C 40.1264,69.6851 41.4598,67.1851 43.5,65C 48.4243,63.0095 53.4243,62.1762 58.5,62.5C 60.6415,52.3472 66.1415,50.0138 75,55.5C 81.3661,48.8915 88.5327,47.8915 96.5,52.5C 104.076,49.1922 110.076,51.0255 114.5,58C 125.152,57.8174 130.152,62.984 129.5,73.5C 133.692,73.1766 135.692,75.1766 135.5,79.5C 135.43,80.7716 135.097,81.9383 134.5,83C 177.272,74.2397 217.272,81.2397 254.5,104C 259.854,108.356 264.854,113.023 269.5,118C 286.178,120.512 296.178,130.012 299.5,146.5C 304.567,150.229 309.901,153.562 315.5,156.5C 317.186,155.143 318.852,153.81 320.5,152.5 Z"/></g>
<g><path style="opacity:1" fill="#d06f79" d="M 76.5,63.5 C 76.44,64.0431 76.1067,64.3764 75.5,64.5C 72.1565,61.1877 68.6565,60.8544 65,63.5C 64.6012,63.2716 64.4346,62.9382 64.5,62.5C 68.7116,56.2107 72.7116,56.544 76.5,63.5 Z"/></g>
<g><path style="opacity:1" fill="#bb1f37" d="M 91.5,57.5 C 94.2535,60.0629 96.9201,60.0629 99.5,57.5C 102.428,56.5159 105.428,56.1826 108.5,56.5C 108.952,59.876 109.618,63.2094 110.5,66.5C 112.578,67.3074 114.245,66.6408 115.5,64.5C 118.371,63.3213 121.204,63.3213 124,64.5C 124.101,69.0021 123.268,73.3355 121.5,77.5C 124.833,77.5 128.167,77.5 131.5,77.5C 131.5,78.8333 131.5,80.1667 131.5,81.5C 131.5,81.8333 131.5,82.1667 131.5,82.5C 130.833,82.5 130.5,82.8333 130.5,83.5C 129.382,86.8093 127.215,87.8093 124,86.5C 122.333,87.1667 120.667,87.8333 119,88.5C 117,87.1667 115,87.1667 113,88.5C 110.769,86.8003 108.269,85.8003 105.5,85.5C 105.665,88.5184 105.498,91.5184 105,94.5C 102.961,95.9783 102.128,97.9783 102.5,100.5C 101.167,100.5 99.8333,100.5 98.5,100.5C 96.7845,94.5572 97.4512,88.8905 100.5,83.5C 100.192,82.6919 99.6924,82.0253 99,81.5C 97.0876,82.6919 95.0876,83.6919 93,84.5C 92.6667,91.1667 92.3333,97.8333 92,104.5C 83.0197,105.953 74.1863,108.12 65.5,111C 68.1667,113.667 68.1667,116.333 65.5,119C 60.9534,120.545 56.2867,120.879 51.5,120C 48.1265,117.392 46.4599,113.892 46.5,109.5C 42.8333,109.5 39.1667,109.5 35.5,109.5C 31.2076,104.006 32.3743,99.6722 39,96.5C 38.9036,93.4456 38.5703,90.4456 38,87.5C 41.1158,85.0328 44.2825,82.6994 47.5,80.5C 46.0499,79.1502 45.3832,77.4835 45.5,75.5C 45.002,69.5008 47.6687,67.3341 53.5,69C 55.7934,70.631 58.2934,71.7977 61,72.5C 62.4357,72.4411 63.769,72.1078 65,71.5C 65.8344,63.9978 69.1677,62.6645 75,67.5C 76.0113,66.6634 77.1779,66.33 78.5,66.5C 80.7107,63.0885 82.7107,59.4218 84.5,55.5C 86.396,54.5344 88.396,54.2011 90.5,54.5C 90.2627,55.791 90.596,56.791 91.5,57.5 Z"/></g>
<g><path style="opacity:1" fill="#390c0f" d="M 131.5,81.5 C 131.5,80.1667 131.5,78.8333 131.5,77.5C 128.167,77.5 124.833,77.5 121.5,77.5C 123.268,73.3355 124.101,69.0021 124,64.5C 121.204,63.3213 118.371,63.3213 115.5,64.5C 116.514,63.2353 118.014,62.5687 120,62.5C 123.594,61.7676 125.76,63.101 126.5,66.5C 125.336,69.0672 124.67,71.7338 124.5,74.5C 126.527,74.3379 128.527,74.5045 130.5,75C 133.806,76.9953 134.139,79.162 131.5,81.5 Z"/></g>
<g><path style="opacity:1" fill="#693385" d="M 388.5,75.5 C 392.36,74.3559 396.36,73.6893 400.5,73.5C 408.974,74.1825 410.641,78.0158 405.5,85C 398.032,86.0404 391.365,87.0404 385.5,88C 383.103,86.2817 380.436,85.1151 377.5,84.5C 379.387,82.9596 381.22,81.2929 383,79.5C 383.774,77.597 383.44,75.9304 382,74.5C 381.506,76.1341 381.34,77.8008 381.5,79.5C 380.167,79.5 378.833,79.5 377.5,79.5C 376.732,75.861 376.066,76.1943 375.5,80.5C 373.517,80.8432 372.183,80.1765 371.5,78.5C 373.483,74.9395 375.483,71.2728 377.5,67.5C 379.078,66.3595 380.744,65.8595 382.5,66C 379.945,67.258 379.278,69.0914 380.5,71.5C 381.386,70.675 381.719,69.675 381.5,68.5C 383.591,68.6816 385.591,68.3482 387.5,67.5C 387.833,68.1667 388.167,68.8333 388.5,69.5C 387.72,70.9495 387.054,72.4495 386.5,74C 386.324,76.3595 386.991,76.8595 388.5,75.5 Z"/></g>
<g><path style="opacity:1" fill="#a82637" d="M 91.5,57.5 C 90.596,56.791 90.2627,55.791 90.5,54.5C 88.396,54.2011 86.396,54.5344 84.5,55.5C 82.7107,59.4218 80.7107,63.0885 78.5,66.5C 77.1779,66.33 76.0113,66.6634 75,67.5C 69.1677,62.6645 65.8344,63.9978 65,71.5C 63.769,72.1078 62.4357,72.4411 61,72.5C 58.2934,71.7977 55.7934,70.631 53.5,69C 47.6687,67.3341 45.002,69.5008 45.5,75.5C 44.0209,72.8569 44.3542,70.3569 46.5,68C 50.1516,67.5014 53.8183,67.3347 57.5,67.5C 58.6067,69.9689 60.6067,70.9689 63.5,70.5C 63.1936,67.6146 63.5269,64.9479 64.5,62.5C 64.4346,62.9382 64.6012,63.2716 65,63.5C 68.6565,60.8544 72.1565,61.1877 75.5,64.5C 76.1067,64.3764 76.44,64.0431 76.5,63.5C 78.1288,62.3747 79.6288,61.0414 81,59.5C 82.224,53.9393 85.724,51.9393 91.5,53.5C 91.5,54.8333 91.5,56.1667 91.5,57.5 Z"/></g>
<g><path style="opacity:1" fill="#2e0d0d" d="M 57.5,67.5 C 53.8183,67.3347 50.1516,67.5014 46.5,68C 44.3542,70.3569 44.0209,72.8569 45.5,75.5C 45.3832,77.4835 46.0499,79.1502 47.5,80.5C 44.2825,82.6994 41.1158,85.0328 38,87.5C 38.5703,90.4456 38.9036,93.4456 39,96.5C 32.3743,99.6722 31.2076,104.006 35.5,109.5C 36.1667,110.167 36.8333,110.833 37.5,111.5C 35.3281,110.199 32.9948,109.199 30.5,108.5C 30.012,105.289 30.6787,102.456 32.5,100C 31.244,99.5831 30.5774,98.7498 30.5,97.5C 33.1437,96.5067 35.8103,95.5067 38.5,94.5C 36.4948,91.9701 35.1614,89.1368 34.5,86C 35.9047,84.7308 37.5714,84.2308 39.5,84.5C 39.5,80.5 39.5,76.5 39.5,72.5C 41.6672,71.3545 43.0005,69.5212 43.5,67C 48.3522,66.1849 53.0189,66.3516 57.5,67.5 Z"/></g>
<g><path style="opacity:1" fill="#65367d" d="M 400.5,73.5 C 409.85,71.3446 413.017,74.678 410,83.5C 409.167,84.3333 408.333,85.1667 407.5,86C 395.609,88.8786 383.609,91.0452 371.5,92.5C 368.856,87.7344 368.856,83.0678 371.5,78.5C 372.183,80.1765 373.517,80.8432 375.5,80.5C 376.066,76.1943 376.732,75.861 377.5,79.5C 378.833,79.5 380.167,79.5 381.5,79.5C 381.34,77.8008 381.506,76.1341 382,74.5C 383.44,75.9304 383.774,77.597 383,79.5C 381.22,81.2929 379.387,82.9596 377.5,84.5C 380.436,85.1151 383.103,86.2817 385.5,88C 391.365,87.0404 398.032,86.0404 405.5,85C 410.641,78.0158 408.974,74.1825 400.5,73.5 Z"/></g>
<g><path style="opacity:1" fill="#b68718" d="M 168.5,84.5 C 175.747,84.1122 182.747,84.7789 189.5,86.5C 185.154,86.3343 180.821,86.501 176.5,87C 179.004,87.6976 181.337,88.5309 183.5,89.5C 178.263,90.8166 172.93,91.4833 167.5,91.5C 168.341,89.6208 168.675,87.6208 168.5,85.5C 168.5,85.1667 168.5,84.8333 168.5,84.5 Z"/></g>
<g><path style="opacity:1" fill="#d0b423" d="M 189.5,86.5 C 190.833,86.5 192.167,86.5 193.5,86.5C 190.679,88.7122 187.345,89.7122 183.5,89.5C 181.337,88.5309 179.004,87.6976 176.5,87C 180.821,86.501 185.154,86.3343 189.5,86.5 Z"/></g>
<g><path style="opacity:1" fill="#9e2d42" d="M 168.5,84.5 C 168.5,84.8333 168.5,85.1667 168.5,85.5C 165.525,87.9922 162.192,89.9922 158.5,91.5C 153.295,93.1778 147.961,94.3445 142.5,95C 141.944,95.3826 141.611,95.8826 141.5,96.5C 140.781,98.7638 140.448,101.097 140.5,103.5C 134.833,103.5 129.167,103.5 123.5,103.5C 123.662,105.527 123.495,107.527 123,109.5C 122.329,110.252 121.496,110.586 120.5,110.5C 121.113,107.991 121.78,105.491 122.5,103C 127.167,102.667 131.833,102.333 136.5,102C 137.022,101.439 137.355,100.772 137.5,100C 136.402,97.5398 135.402,95.0398 134.5,92.5C 137.403,90.6447 140.403,88.978 143.5,87.5C 143.5,87.1667 143.5,86.8333 143.5,86.5C 151.752,84.9497 160.085,84.2831 168.5,84.5 Z"/></g>
<g><path style="opacity:1" fill="#cb5c19" d="M 168.5,85.5 C 168.675,87.6208 168.341,89.6208 167.5,91.5C 165.972,92.3092 164.306,92.9759 162.5,93.5C 160.833,93.5 159.167,93.5 157.5,93.5C 157.833,92.8333 158.167,92.1667 158.5,91.5C 162.192,89.9922 165.525,87.9922 168.5,85.5 Z"/></g>
<g><path style="opacity:1" fill="#1a0b0a" d="M 39.5,72.5 C 39.5,76.5 39.5,80.5 39.5,84.5C 37.5714,84.2308 35.9047,84.7308 34.5,86C 35.1614,89.1368 36.4948,91.9701 38.5,94.5C 35.8103,95.5067 33.1437,96.5067 30.5,97.5C 30.9195,95.9064 31.5862,94.4064 32.5,93C 30.7047,87.2195 32.3713,82.7195 37.5,79.5C 38.0671,77.0177 38.7337,74.6843 39.5,72.5 Z"/></g>
<g><path style="opacity:1" fill="#dfd14d" d="M 211.5,90.5 C 213.903,90.448 216.236,90.7814 218.5,91.5C 219.278,92.1556 219.944,92.9889 220.5,94C 220.167,94.5 219.833,95 219.5,95.5C 217.929,94.6906 216.262,94.3573 214.5,94.5C 209.189,93.3547 203.856,92.3547 198.5,91.5C 202.735,90.564 207.069,90.2307 211.5,90.5 Z"/></g>
<g><path style="opacity:1" fill="#a33823" d="M 158.5,91.5 C 158.167,92.1667 157.833,92.8333 157.5,93.5C 152.36,95.3574 147.026,96.3574 141.5,96.5C 141.611,95.8826 141.944,95.3826 142.5,95C 147.961,94.3445 153.295,93.1778 158.5,91.5 Z"/></g>
<g><path style="opacity:1" fill="#93761f" d="M 218.5,91.5 C 219.959,91.4326 221.292,91.7659 222.5,92.5C 223.29,93.7942 224.29,94.9609 225.5,96C 222.854,96.4974 220.187,96.6641 217.5,96.5C 217.263,97.791 217.596,98.791 218.5,99.5C 218.733,101.062 219.4,102.395 220.5,103.5C 218.318,102.7 216.651,101.2 215.5,99C 213.19,98.5034 210.857,98.3367 208.5,98.5C 208.759,94.9319 210.759,93.5985 214.5,94.5C 216.262,94.3573 217.929,94.6906 219.5,95.5C 219.833,95 220.167,94.5 220.5,94C 219.944,92.9889 219.278,92.1556 218.5,91.5 Z"/></g>
<g><path style="opacity:1" fill="#dc920d" d="M 157.5,93.5 C 159.167,93.5 160.833,93.5 162.5,93.5C 162.631,94.3764 162.298,95.0431 161.5,95.5C 154.306,98.9937 147.306,102.66 140.5,106.5C 140.5,105.5 140.5,104.5 140.5,103.5C 140.448,101.097 140.781,98.7638 141.5,96.5C 147.026,96.3574 152.36,95.3574 157.5,93.5 Z"/></g>
<g><path style="opacity:1" fill="#71614b" d="M 220.5,103.5 C 219.4,102.395 218.733,101.062 218.5,99.5C 221.776,97.3209 225.276,96.9875 229,98.5C 229.651,100.235 229.485,101.902 228.5,103.5C 225.844,104.614 223.177,104.614 220.5,103.5 Z"/></g>
<g><path style="opacity:1" fill="#8b6f29" d="M 222.5,92.5 C 230.647,95.7387 238.314,99.7387 245.5,104.5C 243.012,104.683 241.012,105.683 239.5,107.5C 239.5,106.167 239.5,104.833 239.5,103.5C 237.833,103.5 236.167,103.5 234.5,103.5C 234.298,105.95 234.631,108.283 235.5,110.5C 229.853,109.511 224.853,107.178 220.5,103.5C 223.177,104.614 225.844,104.614 228.5,103.5C 229.485,101.902 229.651,100.235 229,98.5C 225.276,96.9875 221.776,97.3209 218.5,99.5C 217.596,98.791 217.263,97.791 217.5,96.5C 220.187,96.6641 222.854,96.4974 225.5,96C 224.29,94.9609 223.29,93.7942 222.5,92.5 Z"/></g>
<g><path style="opacity:1" fill="#777e13" d="M 193.5,86.5 C 199.303,88.6163 205.303,89.9496 211.5,90.5C 207.069,90.2307 202.735,90.564 198.5,91.5C 188.55,94.1316 178.55,96.9649 168.5,100C 152.406,108.096 137.073,117.43 122.5,128C 112.801,136.841 103.135,145.674 93.5,154.5C 93.7778,152.654 93.1112,151.32 91.5,150.5C 90.1482,151.524 88.8149,152.524 87.5,153.5C 102.344,134.656 120.011,118.99 140.5,106.5C 147.306,102.66 154.306,98.9937 161.5,95.5C 162.298,95.0431 162.631,94.3764 162.5,93.5C 164.306,92.9759 165.972,92.3092 167.5,91.5C 172.93,91.4833 178.263,90.8166 183.5,89.5C 187.345,89.7122 190.679,88.7122 193.5,86.5 Z"/></g>
<g><path style="opacity:1" fill="#675c47" d="M 239.5,107.5 C 239.663,111.035 238.33,112.035 235.5,110.5C 234.631,108.283 234.298,105.95 234.5,103.5C 236.167,103.5 237.833,103.5 239.5,103.5C 239.5,104.833 239.5,106.167 239.5,107.5 Z"/></g>
<g><path style="opacity:1" fill="#e0850d" d="M 140.5,103.5 C 140.5,104.5 140.5,105.5 140.5,106.5C 120.011,118.99 102.344,134.656 87.5,153.5C 86.8333,153.833 86.1667,154.167 85.5,154.5C 86.0417,151.327 87.0417,148.327 88.5,145.5C 89.0977,141.778 90.0977,138.111 91.5,134.5C 94.6957,132.103 98.3624,130.936 102.5,131C 103.337,129.989 103.67,128.822 103.5,127.5C 105.793,123.894 107.293,119.894 108,115.5C 110.714,114.004 113.547,113.004 116.5,112.5C 117.995,112.011 119.329,111.345 120.5,110.5C 121.496,110.586 122.329,110.252 123,109.5C 123.495,107.527 123.662,105.527 123.5,103.5C 129.167,103.5 134.833,103.5 140.5,103.5 Z"/></g>
<g><path style="opacity:1" fill="#921328" d="M 130.5,83.5 C 130.868,86.0558 130.034,88.0558 128,89.5C 103.462,98.0325 85.4618,114.032 74,137.5C 70.8451,139.83 68.6784,142.83 67.5,146.5C 65.604,147.466 63.604,147.799 61.5,147.5C 61.5591,144.038 60.5591,141.038 58.5,138.5C 54.874,140.971 50.874,141.971 46.5,141.5C 46.5865,137.143 46.9198,132.81 47.5,128.5C 44.5,128.5 41.5,128.5 38.5,128.5C 36.4439,127.407 35.4439,125.574 35.5,123C 35.4951,119.349 36.4951,116.016 38.5,113C 37.944,112.617 37.6107,112.117 37.5,111.5C 36.8333,110.833 36.1667,110.167 35.5,109.5C 39.1667,109.5 42.8333,109.5 46.5,109.5C 46.4599,113.892 48.1265,117.392 51.5,120C 56.2867,120.879 60.9534,120.545 65.5,119C 68.1667,116.333 68.1667,113.667 65.5,111C 74.1863,108.12 83.0197,105.953 92,104.5C 92.3333,97.8333 92.6667,91.1667 93,84.5C 95.0876,83.6919 97.0876,82.6919 99,81.5C 99.6924,82.0253 100.192,82.6919 100.5,83.5C 97.4512,88.8905 96.7845,94.5572 98.5,100.5C 99.8333,100.5 101.167,100.5 102.5,100.5C 102.128,97.9783 102.961,95.9783 105,94.5C 105.498,91.5184 105.665,88.5184 105.5,85.5C 108.269,85.8003 110.769,86.8003 113,88.5C 115,87.1667 117,87.1667 119,88.5C 120.667,87.8333 122.333,87.1667 124,86.5C 127.215,87.8093 129.382,86.8093 130.5,83.5 Z"/></g>
<g><path style="opacity:1" fill="#693782" d="M 349.5,109.5 C 353.119,108.756 356.785,108.423 360.5,108.5C 360.449,110.57 361.115,112.403 362.5,114C 360.965,116.244 358.965,117.911 356.5,119C 350.959,120.998 345.459,122.164 340,122.5C 339.691,123.766 339.191,124.933 338.5,126C 335.854,126.497 333.187,126.664 330.5,126.5C 330.683,120.107 331.35,113.774 332.5,107.5C 333.18,102.779 334.18,98.1128 335.5,93.5C 335.167,92.8333 334.833,92.1667 334.5,91.5C 329.314,93.6241 323.981,94.7907 318.5,95C 315.762,92.7959 315.095,90.1293 316.5,87C 325.386,81.229 335.052,77.0623 345.5,74.5C 349.775,75.2723 352.108,77.7723 352.5,82C 350.779,90.8296 348.446,99.4962 345.5,108C 345.833,108.833 346.167,109.667 346.5,110.5C 347.417,109.873 348.417,109.539 349.5,109.5 Z"/></g>
<g><path style="opacity:1" fill="#1e0e0c" d="M 30.5,97.5 C 30.5774,98.7498 31.244,99.5831 32.5,100C 30.6787,102.456 30.012,105.289 30.5,108.5C 32.9948,109.199 35.3281,110.199 37.5,111.5C 37.6107,112.117 37.944,112.617 38.5,113C 36.4951,116.016 35.4951,119.349 35.5,123C 35.4439,125.574 36.4439,127.407 38.5,128.5C 40.0654,130.719 42.0654,131.052 44.5,129.5C 45.3081,129.808 45.9747,130.308 46.5,131C 44.981,134.051 43.981,137.218 43.5,140.5C 42.612,137.946 42.2786,135.279 42.5,132.5C 30.2939,131.973 26.9606,126.306 32.5,115.5C 29.7235,112.282 27.7235,108.615 26.5,104.5C 27.0997,101.651 28.4331,99.3177 30.5,97.5 Z"/></g>
<g><path style="opacity:1" fill="#8e302e" d="M 116.5,112.5 C 113.547,113.004 110.714,114.004 108,115.5C 107.293,119.894 105.793,123.894 103.5,127.5C 104.327,122.679 105.66,118.012 107.5,113.5C 110.428,112.516 113.428,112.183 116.5,112.5 Z"/></g>
<g><path style="opacity:1" fill="#613772" d="M 332.5,107.5 C 331.35,113.774 330.683,120.107 330.5,126.5C 333.187,126.664 335.854,126.497 338.5,126C 339.191,124.933 339.691,123.766 340,122.5C 345.459,122.164 350.959,120.998 356.5,119C 358.965,117.911 360.965,116.244 362.5,114C 361.115,112.403 360.449,110.57 360.5,108.5C 356.785,108.423 353.119,108.756 349.5,109.5C 353.547,106.86 357.88,106.36 362.5,108C 364.922,110.003 365.755,112.503 365,115.5C 355.702,121.066 345.868,125.4 335.5,128.5C 330.961,128.905 328.294,126.905 327.5,122.5C 328.597,117.208 330.264,112.208 332.5,107.5 Z"/></g>
<g><path style="opacity:1" fill="#852947" d="M 143.5,87.5 C 140.403,88.978 137.403,90.6447 134.5,92.5C 135.402,95.0398 136.402,97.5398 137.5,100C 137.355,100.772 137.022,101.439 136.5,102C 131.833,102.333 127.167,102.667 122.5,103C 121.78,105.491 121.113,107.991 120.5,110.5C 119.329,111.345 117.995,112.011 116.5,112.5C 113.428,112.183 110.428,112.516 107.5,113.5C 105.66,118.012 104.327,122.679 103.5,127.5C 100.597,129.569 97.2636,130.736 93.5,131C 92.1772,131.816 91.5106,132.983 91.5,134.5C 90.0977,138.111 89.0977,141.778 88.5,145.5C 86.1432,145.337 83.8098,145.503 81.5,146C 78.9345,150.298 76.7678,154.798 75,159.5C 73.3005,160.406 71.4672,160.739 69.5,160.5C 69.5,160.167 69.5,159.833 69.5,159.5C 70.9773,155.767 71.8106,151.767 72,147.5C 78.5199,134.314 86.6866,122.147 96.5,111C 105.003,105.916 113.336,100.583 121.5,95C 128.774,92.1868 136.107,89.6868 143.5,87.5 Z"/></g>
<g><path style="opacity:1" fill="#300a0d" d="M 131.5,82.5 C 131.5,84.5 131.5,86.5 131.5,88.5C 135.427,87.4746 139.427,86.8079 143.5,86.5C 143.5,86.8333 143.5,87.1667 143.5,87.5C 136.107,89.6868 128.774,92.1868 121.5,95C 113.336,100.583 105.003,105.916 96.5,111C 86.6866,122.147 78.5199,134.314 72,147.5C 71.8106,151.767 70.9773,155.767 69.5,159.5C 69.8226,155.774 69.4892,152.107 68.5,148.5C 65.5047,149.724 62.5047,149.724 59.5,148.5C 59.822,146.278 59.1554,144.444 57.5,143C 54.2875,142.297 51.1208,142.464 48,143.5C 46.7387,143.241 45.7387,142.574 45,141.5C 44.6012,141.728 44.4346,142.062 44.5,142.5C 43.6618,142.158 43.3284,141.492 43.5,140.5C 43.981,137.218 44.981,134.051 46.5,131C 45.9747,130.308 45.3081,129.808 44.5,129.5C 42.0654,131.052 40.0654,130.719 38.5,128.5C 41.5,128.5 44.5,128.5 47.5,128.5C 46.9198,132.81 46.5865,137.143 46.5,141.5C 50.874,141.971 54.874,140.971 58.5,138.5C 60.5591,141.038 61.5591,144.038 61.5,147.5C 63.604,147.799 65.604,147.466 67.5,146.5C 68.6784,142.83 70.8451,139.83 74,137.5C 85.4618,114.032 103.462,98.0325 128,89.5C 130.034,88.0558 130.868,86.0558 130.5,83.5C 130.5,82.8333 130.833,82.5 131.5,82.5 Z"/></g>
<g><path style="opacity:1" fill="#983c27" d="M 103.5,127.5 C 103.67,128.822 103.337,129.989 102.5,131C 98.3624,130.936 94.6957,132.103 91.5,134.5C 91.5106,132.983 92.1772,131.816 93.5,131C 97.2636,130.736 100.597,129.569 103.5,127.5 Z"/></g>
<g><path style="opacity:1" fill="#632472" d="M 283.5,129.5 C 284.007,130.859 285.007,131.859 286.5,132.5C 286.291,133.086 285.957,133.586 285.5,134C 287.037,135.11 287.703,136.61 287.5,138.5C 270.148,137.309 252.814,137.476 235.5,139C 234.833,139.333 234.167,139.667 233.5,140C 233.728,140.399 234.062,140.565 234.5,140.5C 229.244,142.451 223.91,144.451 218.5,146.5C 214.176,146.536 210.342,147.869 207,150.5C 204.536,149.349 202.036,148.349 199.5,147.5C 199.5,146.167 199.5,144.833 199.5,143.5C 203.444,142.726 203.277,142.059 199,141.5C 196.079,142.572 193.246,143.906 190.5,145.5C 188.647,144.699 186.981,144.365 185.5,144.5C 185.833,143.833 186.167,143.167 186.5,142.5C 188.833,141.833 191.167,141.167 193.5,140.5C 196.281,136.919 199.614,136.085 203.5,138C 204.641,138.741 204.641,139.575 203.5,140.5C 205.045,141.452 206.712,141.785 208.5,141.5C 208.312,139.897 208.812,138.563 210,137.5C 211.835,138.26 213.835,138.594 216,138.5C 229.017,135.821 242.184,134.154 255.5,133.5C 255.5,132.5 255.5,131.5 255.5,130.5C 260.511,130.334 265.511,130.501 270.5,131C 273.001,133.129 275.668,133.629 278.5,132.5C 278.525,128.716 280.192,127.716 283.5,129.5 Z"/></g>
<g><path style="opacity:1" fill="#64326b" d="M 283.5,127.5 C 288.174,130.511 290.507,134.845 290.5,140.5C 284.5,140.5 278.5,140.5 272.5,140.5C 263.578,139.16 254.578,139.493 245.5,141.5C 242.038,140.518 238.371,140.185 234.5,140.5C 234.062,140.565 233.728,140.399 233.5,140C 234.167,139.667 234.833,139.333 235.5,139C 252.814,137.476 270.148,137.309 287.5,138.5C 287.703,136.61 287.037,135.11 285.5,134C 285.957,133.586 286.291,133.086 286.5,132.5C 285.007,131.859 284.007,130.859 283.5,129.5C 283.5,128.833 283.5,128.167 283.5,127.5 Z"/></g>
<g><path style="opacity:1" fill="#230413" d="M 272.5,140.5 C 270.237,141.256 267.903,141.423 265.5,141C 267.315,141.757 268.981,142.59 270.5,143.5C 247.14,144.294 225.14,149.961 204.5,160.5C 170.714,178.444 141.88,202.444 118,232.5C 117.505,234.473 117.338,236.473 117.5,238.5C 116.842,237.602 116.176,236.602 115.5,235.5C 114.16,236.867 112.827,238.2 111.5,239.5C 112.658,235.194 114.491,231.194 117,227.5C 126.096,217.911 134.93,208.245 143.5,198.5C 158.719,185.784 174.386,173.617 190.5,162C 208.293,153.681 226.626,146.847 245.5,141.5C 254.578,139.493 263.578,139.16 272.5,140.5 Z"/></g>
<g><path style="opacity:1" fill="#2b100b" d="M 258.5,112.5 C 261.25,113.744 263.583,115.577 265.5,118C 265.167,118.333 264.833,118.667 264.5,119C 259.107,119.555 253.773,120.222 248.5,121C 249.167,121.333 249.833,121.667 250.5,122C 244.833,122.333 239.167,122.667 233.5,123C 232.944,123.383 232.611,123.883 232.5,124.5C 201.082,131.581 172.749,145.081 147.5,165C 117.914,188.734 94.9138,217.568 78.5,251.5C 76.8297,251.751 75.3297,252.418 74,253.5C 70.7846,250.154 68.2846,246.487 66.5,242.5C 66.8751,240.302 67.5418,238.302 68.5,236.5C 68.4187,241.602 70.0853,245.935 73.5,249.5C 73.7352,250.097 74.2352,250.43 75,250.5C 79.8254,243.525 84.1587,236.192 88,228.5C 96.3015,215.712 105.135,203.379 114.5,191.5C 121.298,185.203 127.965,178.703 134.5,172C 141.067,166.587 147.733,161.421 154.5,156.5C 171.175,144.996 188.842,135.33 207.5,127.5C 218.068,124.772 228.734,122.272 239.5,120C 246.807,119.05 254.14,118.383 261.5,118C 261.833,117.667 262.167,117.333 262.5,117C 260.959,115.629 259.625,114.129 258.5,112.5 Z"/></g>
<g><path style="opacity:1" fill="#1b0e0d" d="M 59.5,148.5 C 56.0515,145.928 52.0515,144.761 47.5,145C 46.0577,144.623 45.0577,143.79 44.5,142.5C 44.4346,142.062 44.6012,141.728 45,141.5C 45.7387,142.574 46.7387,143.241 48,143.5C 51.1208,142.464 54.2875,142.297 57.5,143C 59.1554,144.444 59.822,146.278 59.5,148.5 Z"/></g>
<g><path style="opacity:1" fill="#826621" d="M 141.5,138.5 C 141.567,135.234 139.901,133.734 136.5,134C 133.167,133.333 129.833,133.333 126.5,134C 125.619,134.708 124.953,135.542 124.5,136.5C 123.206,137.29 122.039,138.29 121,139.5C 120.621,145.669 119.787,151.669 118.5,157.5C 117.5,157.5 116.5,157.5 115.5,157.5C 117.439,151.31 118.939,144.976 120,138.5C 125.158,132.656 131.658,130.823 139.5,133C 142.41,134.173 143.077,136.006 141.5,138.5 Z"/></g>
<g><path style="opacity:1" fill="#aa7e29" d="M 125.5,142.5 C 127.764,143.219 130.097,143.552 132.5,143.5C 132.5,144.5 132.5,145.5 132.5,146.5C 131.596,147.209 131.263,148.209 131.5,149.5C 127.02,149.35 125.02,147.017 125.5,142.5 Z"/></g>
<g><path style="opacity:1" fill="#786f3a" d="M 124.5,136.5 C 124.517,138.565 124.85,140.565 125.5,142.5C 125.02,147.017 127.02,149.35 131.5,149.5C 131.263,148.209 131.596,147.209 132.5,146.5C 133.252,149.747 133.752,153.081 134,156.5C 134.953,158.373 136.12,158.706 137.5,157.5C 137.141,159.371 136.141,160.871 134.5,162C 132.134,162.44 129.801,162.94 127.5,163.5C 127.611,162.883 127.944,162.383 128.5,162C 126.389,161.155 124.389,160.322 122.5,159.5C 125.119,159.768 127.619,159.435 130,158.5C 131.393,154.798 130.226,152.798 126.5,152.5C 122.187,152.826 120.52,155.159 121.5,159.5C 119.379,159.675 117.379,159.341 115.5,158.5C 115.5,158.167 115.5,157.833 115.5,157.5C 116.5,157.5 117.5,157.5 118.5,157.5C 119.787,151.669 120.621,145.669 121,139.5C 122.039,138.29 123.206,137.29 124.5,136.5 Z"/></g>
<g><path style="opacity:1" fill="#8c303b" d="M 270.5,143.5 C 272.698,143.12 274.365,143.787 275.5,145.5C 275.611,146.117 275.944,146.617 276.5,147C 272.83,147.548 269.163,148.048 265.5,148.5C 265.433,149.959 265.766,151.292 266.5,152.5C 258.302,150.858 250.302,151.525 242.5,154.5C 232.971,154.132 223.971,156.132 215.5,160.5C 211.882,159.681 208.216,159.681 204.5,160.5C 225.14,149.961 247.14,144.294 270.5,143.5 Z"/></g>
<g><path style="opacity:1" fill="#49204d" d="M 234.5,140.5 C 238.371,140.185 242.038,140.518 245.5,141.5C 226.626,146.847 208.293,153.681 190.5,162C 174.386,173.617 158.719,185.784 143.5,198.5C 143.5,197.5 143.5,196.5 143.5,195.5C 144.028,194.279 144.695,193.113 145.5,192C 161.552,179.614 177.886,167.614 194.5,156C 202.798,153.296 210.798,150.129 218.5,146.5C 223.91,144.451 229.244,142.451 234.5,140.5 Z"/></g>
<g><path style="opacity:1" fill="#d36e10" d="M 88.5,145.5 C 87.0417,148.327 86.0417,151.327 85.5,154.5C 79.528,162.803 72.8613,170.47 65.5,177.5C 66.1368,172.147 66.9701,166.814 68,161.5C 68.3826,160.944 68.8826,160.611 69.5,160.5C 71.4672,160.739 73.3005,160.406 75,159.5C 76.7678,154.798 78.9345,150.298 81.5,146C 83.8098,145.503 86.1432,145.337 88.5,145.5 Z"/></g>
<g><path style="opacity:1" fill="#552129" d="M 331.5,166.5 C 330.662,166.842 330.328,167.508 330.5,168.5C 328.589,168.426 327.422,167.426 327,165.5C 325.644,166.38 324.144,166.714 322.5,166.5C 318.98,165.647 316.313,163.647 314.5,160.5C 316.963,158.268 318.963,155.602 320.5,152.5C 320.061,141.397 325.061,137.564 335.5,141C 336.333,141.833 337.167,142.667 338,143.5C 339.534,147.711 339.867,152.044 339,156.5C 336.252,159.734 333.752,163.068 331.5,166.5 Z"/></g>
<g><path style="opacity:1" fill="#a43d3c" d="M 326.5,146.5 C 329.93,145.79 332.263,146.957 333.5,150C 333.018,155.807 330.184,159.974 325,162.5C 324.228,162.355 323.561,162.022 323,161.5C 322.501,156.845 322.334,152.179 322.5,147.5C 324.099,147.768 325.432,147.434 326.5,146.5 Z"/></g>
<g><path style="opacity:1" fill="#e59605" d="M 207.5,127.5 C 188.842,135.33 171.175,144.996 154.5,156.5C 153.081,155.549 151.415,155.216 149.5,155.5C 149.5,156.5 149.5,157.5 149.5,158.5C 148.127,158.343 146.793,158.51 145.5,159C 146.993,160.156 146.826,160.99 145,161.5C 143.584,160.427 142.25,160.427 141,161.5C 140.626,160.584 140.126,159.75 139.5,159C 140.435,156.619 140.768,154.119 140.5,151.5C 140.401,148.763 140.735,146.096 141.5,143.5C 142.93,140.803 144.263,137.969 145.5,135C 152.013,134.828 158.347,134.328 164.5,133.5C 168.167,133.5 171.833,133.5 175.5,133.5C 177.012,131.808 178.678,130.975 180.5,131C 179.67,129.535 179.504,128.035 180,126.5C 181.507,127.535 183.007,127.368 184.5,126C 182.744,125.798 181.078,125.298 179.5,124.5C 183.74,118.365 189.406,116.531 196.5,119C 197.126,119.75 197.626,120.584 198,121.5C 200.719,120.556 203.552,120.223 206.5,120.5C 206.433,123.483 207.433,125.15 209.5,125.5C 208.757,126.182 208.091,126.849 207.5,127.5 Z"/></g>
<g><path style="opacity:1" fill="#915818" d="M 148.5,140.5 C 150.833,140.5 153.167,140.5 155.5,140.5C 155.5,141.5 155.5,142.5 155.5,143.5C 153.181,144.167 150.847,144.334 148.5,144C 147.316,142.855 147.316,141.688 148.5,140.5 Z"/></g>
<g><path style="opacity:1" fill="#db990d" d="M 198.5,91.5 C 203.856,92.3547 209.189,93.3547 214.5,94.5C 210.759,93.5985 208.759,94.9319 208.5,98.5C 210.857,98.3367 213.19,98.5034 215.5,99C 216.651,101.2 218.318,102.7 220.5,103.5C 224.853,107.178 229.853,109.511 235.5,110.5C 238.33,112.035 239.663,111.035 239.5,107.5C 241.012,105.683 243.012,104.683 245.5,104.5C 249.851,107.194 254.184,109.86 258.5,112.5C 259.625,114.129 260.959,115.629 262.5,117C 262.167,117.333 261.833,117.667 261.5,118C 254.14,118.383 246.807,119.05 239.5,120C 228.734,122.272 218.068,124.772 207.5,127.5C 208.091,126.849 208.757,126.182 209.5,125.5C 207.433,125.15 206.433,123.483 206.5,120.5C 203.552,120.223 200.719,120.556 198,121.5C 197.626,120.584 197.126,119.75 196.5,119C 189.406,116.531 183.74,118.365 179.5,124.5C 181.078,125.298 182.744,125.798 184.5,126C 183.007,127.368 181.507,127.535 180,126.5C 179.504,128.035 179.67,129.535 180.5,131C 178.678,130.975 177.012,131.808 175.5,133.5C 176.822,128.849 178.155,124.182 179.5,119.5C 181.405,117.951 181.739,116.118 180.5,114C 175.777,112.888 170.944,112.388 166,112.5C 161.833,112.667 157.667,112.833 153.5,113C 152.086,114.993 151.086,117.16 150.5,119.5C 149.699,121.042 149.366,122.708 149.5,124.5C 147.882,127.171 147.215,130.171 147.5,133.5C 153.167,133.5 158.833,133.5 164.5,133.5C 158.347,134.328 152.013,134.828 145.5,135C 144.263,137.969 142.93,140.803 141.5,143.5C 141.5,142.5 141.5,141.5 141.5,140.5C 141.5,139.833 141.5,139.167 141.5,138.5C 143.077,136.006 142.41,134.173 139.5,133C 131.658,130.823 125.158,132.656 120,138.5C 118.939,144.976 117.439,151.31 115.5,157.5C 115.5,157.833 115.5,158.167 115.5,158.5C 113.552,160.32 112.552,162.654 112.5,165.5C 117.729,165.985 122.729,165.318 127.5,163.5C 129.801,162.94 132.134,162.44 134.5,162C 136.141,160.871 137.141,159.371 137.5,157.5C 138.5,155.5 139.5,153.5 140.5,151.5C 140.768,154.119 140.435,156.619 139.5,159C 140.126,159.75 140.626,160.584 141,161.5C 142.25,160.427 143.584,160.427 145,161.5C 146.826,160.99 146.993,160.156 145.5,159C 146.793,158.51 148.127,158.343 149.5,158.5C 149.5,157.5 149.5,156.5 149.5,155.5C 151.415,155.216 153.081,155.549 154.5,156.5C 147.733,161.421 141.067,166.587 134.5,172C 127.965,178.703 121.298,185.203 114.5,191.5C 114.617,189.516 113.95,187.85 112.5,186.5C 113.833,184.5 115.5,182.833 117.5,181.5C 114.988,180.205 112.321,179.539 109.5,179.5C 109.784,181.415 109.451,183.081 108.5,184.5C 108.907,178.839 109.24,173.172 109.5,167.5C 109.5,164.833 109.5,162.167 109.5,159.5C 109.905,155.952 109.405,152.619 108,149.5C 103.366,153.132 99.033,157.132 95,161.5C 91.3753,170.539 88.8753,179.873 87.5,189.5C 86.1667,189.833 84.8333,190.167 83.5,190.5C 80.2433,181.095 77.5767,181.429 75.5,191.5C 73.4302,195.3 71.0969,198.966 68.5,202.5C 66.6122,200.012 65.9455,197.012 66.5,193.5C 75.7438,180.683 84.7438,167.683 93.5,154.5C 103.135,145.674 112.801,136.841 122.5,128C 137.073,117.43 152.406,108.096 168.5,100C 178.55,96.9649 188.55,94.1316 198.5,91.5 Z"/></g>
<g><path style="opacity:1" fill="#6c5d39" d="M 141.5,138.5 C 141.5,139.167 141.5,139.833 141.5,140.5C 137.919,140.138 134.919,141.138 132.5,143.5C 130.097,143.552 127.764,143.219 125.5,142.5C 124.85,140.565 124.517,138.565 124.5,136.5C 124.953,135.542 125.619,134.708 126.5,134C 129.833,133.333 133.167,133.333 136.5,134C 139.901,133.734 141.567,135.234 141.5,138.5 Z"/></g>
<g><path style="opacity:1" fill="#687b2b" d="M 175.5,114.5 C 176.833,114.5 178.167,114.5 179.5,114.5C 179.5,116.167 179.5,117.833 179.5,119.5C 178.155,124.182 176.822,128.849 175.5,133.5C 171.833,133.5 168.167,133.5 164.5,133.5C 158.833,133.5 153.167,133.5 147.5,133.5C 147.215,130.171 147.882,127.171 149.5,124.5C 152.239,127.024 155.572,128.024 159.5,127.5C 161.5,127.5 163.5,127.5 165.5,127.5C 167.792,127.756 169.959,127.423 172,126.5C 174.056,122.732 175.222,118.732 175.5,114.5 Z"/></g>
<g><path style="opacity:1" fill="#6f683a" d="M 175.5,114.5 C 175.222,118.732 174.056,122.732 172,126.5C 169.959,127.423 167.792,127.756 165.5,127.5C 167.218,126.776 169.052,126.109 171,125.5C 171.495,123.527 171.662,121.527 171.5,119.5C 167.5,119.5 163.5,119.5 159.5,119.5C 158.307,119.97 157.64,120.97 157.5,122.5C 157.34,124.355 158.007,125.688 159.5,126.5C 159.5,126.833 159.5,127.167 159.5,127.5C 155.572,128.024 152.239,127.024 149.5,124.5C 149.366,122.708 149.699,121.042 150.5,119.5C 151.965,118.594 152.965,117.261 153.5,115.5C 160.803,114.503 168.137,114.169 175.5,114.5 Z"/></g>
<g><path style="opacity:1" fill="#91473f" d="M 159.5,119.5 C 162.962,120.482 166.629,120.815 170.5,120.5C 170.762,121.978 170.429,123.311 169.5,124.5C 166.243,125.551 162.91,126.218 159.5,126.5C 158.007,125.688 157.34,124.355 157.5,122.5C 157.64,120.97 158.307,119.97 159.5,119.5 Z"/></g>
<g><path style="opacity:1" fill="#764d30" d="M 159.5,119.5 C 163.5,119.5 167.5,119.5 171.5,119.5C 171.662,121.527 171.495,123.527 171,125.5C 169.052,126.109 167.218,126.776 165.5,127.5C 163.5,127.5 161.5,127.5 159.5,127.5C 159.5,127.167 159.5,126.833 159.5,126.5C 162.91,126.218 166.243,125.551 169.5,124.5C 170.429,123.311 170.762,121.978 170.5,120.5C 166.629,120.815 162.962,120.482 159.5,119.5 Z"/></g>
<g><path style="opacity:1" fill="#7e671f" d="M 179.5,119.5 C 179.5,117.833 179.5,116.167 179.5,114.5C 178.167,114.5 176.833,114.5 175.5,114.5C 168.137,114.169 160.803,114.503 153.5,115.5C 152.965,117.261 151.965,118.594 150.5,119.5C 151.086,117.16 152.086,114.993 153.5,113C 157.667,112.833 161.833,112.667 166,112.5C 170.944,112.388 175.777,112.888 180.5,114C 181.739,116.118 181.405,117.951 179.5,119.5 Z"/></g>
<g><path style="opacity:1" fill="#707537" d="M 205.5,118.5 C 203.901,118.768 202.568,118.434 201.5,117.5C 197.79,115.864 193.79,115.198 189.5,115.5C 189.643,113.738 189.309,112.071 188.5,110.5C 190.007,109.261 191.174,109.595 192,111.5C 192.414,111.043 192.914,110.709 193.5,110.5C 197.769,111.538 202.102,112.205 206.5,112.5C 206.34,110.801 206.506,109.134 207,107.5C 208.626,107.854 210.459,107.854 212.5,107.5C 212.584,111.331 211.917,114.998 210.5,118.5C 208.833,118.5 207.167,118.5 205.5,118.5 Z"/></g>
<g><path style="opacity:1" fill="#81711d" d="M 176.5,103.5 C 178.5,103.5 180.5,103.5 182.5,103.5C 182.5,105.167 182.5,106.833 182.5,108.5C 180.409,108.682 178.409,108.348 176.5,107.5C 175.374,106.192 175.374,104.858 176.5,103.5 Z"/></g>
<g><path style="opacity:1" fill="#79702c" d="M 205.5,118.5 C 207.167,118.5 208.833,118.5 210.5,118.5C 211.917,114.998 212.584,111.331 212.5,107.5C 210.459,107.854 208.626,107.854 207,107.5C 206.506,109.134 206.34,110.801 206.5,112.5C 202.102,112.205 197.769,111.538 193.5,110.5C 192.914,110.709 192.414,111.043 192,111.5C 191.174,109.595 190.007,109.261 188.5,110.5C 189.309,112.071 189.643,113.738 189.5,115.5C 193.79,115.198 197.79,115.864 201.5,117.5C 196.527,116.836 191.527,116.503 186.5,116.5C 185.538,110.819 186.705,105.486 190,100.5C 198.094,100.083 206.094,101.083 214,103.5C 214.729,108.669 214.062,113.669 212,118.5C 209.726,119.811 207.56,119.811 205.5,118.5 Z"/></g>
<g><path style="opacity:1" fill="#b7532d" d="M 195.5,105.5 C 198.5,105.5 201.5,105.5 204.5,105.5C 204.5,106.833 204.5,108.167 204.5,109.5C 201.5,109.5 198.5,109.5 195.5,109.5C 195.5,108.167 195.5,106.833 195.5,105.5 Z"/></g>
<g><path style="opacity:1" fill="#9f4831" d="M 122.5,159.5 C 122.167,159.5 121.833,159.5 121.5,159.5C 120.52,155.159 122.187,152.826 126.5,152.5C 130.226,152.798 131.393,154.798 130,158.5C 127.619,159.435 125.119,159.768 122.5,159.5 Z"/></g>
<g><path style="opacity:1" fill="#b43e4c" d="M 275.5,145.5 C 277.315,146.63 279.315,147.296 281.5,147.5C 286.194,151.527 290.527,155.86 294.5,160.5C 295.072,162.255 295.906,163.922 297,165.5C 302.544,170.372 308.044,175.372 313.5,180.5C 318.5,187.5 324.5,193.5 331.5,198.5C 335.5,202.833 339.5,207.167 343.5,211.5C 346.51,214.874 349.51,218.208 352.5,221.5C 355.168,226.159 358.335,230.492 362,234.5C 365.329,239.305 366.496,244.472 365.5,250C 361.582,251.156 357.582,251.656 353.5,251.5C 352.541,237.704 345.874,233.871 333.5,240C 328.047,247.3 328.214,254.467 334,261.5C 334.822,264.117 335.322,266.784 335.5,269.5C 335.059,292.229 346.059,302.062 368.5,299C 376.262,294.898 383.762,290.398 391,285.5C 393.137,287.321 393.97,289.654 393.5,292.5C 393.833,293.833 394.167,295.167 394.5,296.5C 393.826,299.526 392.993,302.526 392,305.5C 390.062,306.86 388.396,306.527 387,304.5C 385.725,306.717 384.725,309.051 384,311.5C 373.681,317.486 366.681,326.153 363,337.5C 350.377,351.062 334.877,358.562 316.5,360C 315.663,358.989 315.33,357.822 315.5,356.5C 314.041,356.433 312.708,356.766 311.5,357.5C 310.542,357.047 309.708,356.381 309,355.5C 308.764,353.236 308.264,351.069 307.5,349C 304.236,347.363 301.402,345.197 299,342.5C 297.56,341.852 296.06,341.519 294.5,341.5C 291.698,341.018 288.865,340.684 286,340.5C 279.66,341.127 273.493,342.461 267.5,344.5C 259.443,342.279 252.11,343.613 245.5,348.5C 243.629,348.859 242.129,349.859 241,351.5C 239.365,354.632 237.532,357.632 235.5,360.5C 240.23,363.802 243.23,362.635 244.5,357C 247.209,356.459 249.209,354.959 250.5,352.5C 252.214,353.609 252.881,352.942 252.5,350.5C 255.187,350.336 257.854,350.503 260.5,351C 258.462,352.236 257.295,354.069 257,356.5C 256.667,355.833 256.333,355.167 256,354.5C 254.764,356.538 252.931,357.705 250.5,358C 251.479,360.137 252.812,361.971 254.5,363.5C 255.298,361.922 255.798,360.256 256,358.5C 256.925,359.047 257.758,359.713 258.5,360.5C 256.816,364.048 255.316,367.715 254,371.5C 253,372.167 252,372.833 251,373.5C 249.708,372.209 248.542,372.209 247.5,373.5C 238.235,371.572 229.235,368.906 220.5,365.5C 220.062,365.565 219.728,365.399 219.5,365C 222.832,362.511 225.166,359.344 226.5,355.5C 226.124,353.617 225.124,352.117 223.5,351C 218.167,350.333 212.833,350.333 207.5,351C 202.786,352.774 198.286,354.941 194,357.5C 191.721,356.609 189.554,355.609 187.5,354.5C 181.876,349.032 176.71,343.032 172,336.5C 171.37,334.097 172.203,332.263 174.5,331C 170.847,329.438 167.18,327.938 163.5,326.5C 158.232,316.294 151.732,306.96 144,298.5C 141.392,292.947 138.559,287.613 135.5,282.5C 128.704,269.284 124.871,255.284 124,240.5C 124.438,237.624 125.438,234.957 127,232.5C 143.211,208.12 164.045,188.786 189.5,174.5C 190.754,169.895 193.754,167.062 198.5,166C 200.475,163.908 202.475,162.075 204.5,160.5C 208.216,159.681 211.882,159.681 215.5,160.5C 223.971,156.132 232.971,154.132 242.5,154.5C 239.196,157.816 237.196,161.816 236.5,166.5C 236.833,167.167 237.167,167.833 237.5,168.5C 248.332,162.209 259.998,159.542 272.5,160.5C 272.374,156.38 270.374,153.713 266.5,152.5C 265.766,151.292 265.433,149.959 265.5,148.5C 269.163,148.048 272.83,147.548 276.5,147C 275.944,146.617 275.611,146.117 275.5,145.5 Z"/></g>
<g><path style="opacity:1" fill="#678128" d="M 141.5,140.5 C 141.5,141.5 141.5,142.5 141.5,143.5C 140.735,146.096 140.401,148.763 140.5,151.5C 139.5,153.5 138.5,155.5 137.5,157.5C 136.12,158.706 134.953,158.373 134,156.5C 133.752,153.081 133.252,149.747 132.5,146.5C 132.5,145.5 132.5,144.5 132.5,143.5C 134.919,141.138 137.919,140.138 141.5,140.5 Z"/></g>
<g><path style="opacity:1" fill="#3f0b10" d="M 266.5,152.5 C 270.374,153.713 272.374,156.38 272.5,160.5C 259.998,159.542 248.332,162.209 237.5,168.5C 237.167,167.833 236.833,167.167 236.5,166.5C 237.196,161.816 239.196,157.816 242.5,154.5C 250.302,151.525 258.302,150.858 266.5,152.5 Z"/></g>
<g><path style="opacity:1" fill="#798627" d="M 115.5,158.5 C 117.379,159.341 119.379,159.675 121.5,159.5C 121.833,159.5 122.167,159.5 122.5,159.5C 124.389,160.322 126.389,161.155 128.5,162C 127.944,162.383 127.611,162.883 127.5,163.5C 122.729,165.318 117.729,165.985 112.5,165.5C 112.552,162.654 113.552,160.32 115.5,158.5 Z"/></g>
<g><path style="opacity:1" fill="#697628" d="M 109.5,159.5 C 106.204,163.298 102.704,166.964 99,170.5C 98.5045,172.473 98.3379,174.473 98.5,176.5C 95.4681,176.178 93.8014,177.511 93.5,180.5C 93.6399,182.03 94.3065,183.03 95.5,183.5C 95.5,184.5 95.5,185.5 95.5,186.5C 97.099,186.768 98.4324,186.434 99.5,185.5C 100.368,180.718 101.868,176.052 104,171.5C 105.73,169.924 107.563,168.59 109.5,167.5C 109.24,173.172 108.907,178.839 108.5,184.5C 108.354,188.636 106.354,191.303 102.5,192.5C 98.4862,192.666 94.4862,192.499 90.5,192C 89.6266,190.955 88.6266,190.122 87.5,189.5C 88.8753,179.873 91.3753,170.539 95,161.5C 99.033,157.132 103.366,153.132 108,149.5C 109.405,152.619 109.905,155.952 109.5,159.5 Z"/></g>
<g><path style="opacity:1" fill="#905126" d="M 109.5,159.5 C 109.5,162.167 109.5,164.833 109.5,167.5C 107.563,168.59 105.73,169.924 104,171.5C 101.868,176.052 100.368,180.718 99.5,185.5C 99.5,183.5 99.5,181.5 99.5,179.5C 98.1667,179.5 96.8333,179.5 95.5,179.5C 95.5,180.833 95.5,182.167 95.5,183.5C 94.3065,183.03 93.6399,182.03 93.5,180.5C 93.8014,177.511 95.4681,176.178 98.5,176.5C 98.3379,174.473 98.5045,172.473 99,170.5C 102.704,166.964 106.204,163.298 109.5,159.5 Z"/></g>
<g><path style="opacity:1" fill="#bf7179" d="M 294.5,160.5 C 302.233,165.898 308.566,172.565 313.5,180.5C 308.044,175.372 302.544,170.372 297,165.5C 295.906,163.922 295.072,162.255 294.5,160.5 Z"/></g>
<g><path style="opacity:1" fill="#728608" d="M 93.5,154.5 C 84.7438,167.683 75.7438,180.683 66.5,193.5C 66.1667,193.5 65.8333,193.5 65.5,193.5C 65.5,188.167 65.5,182.833 65.5,177.5C 72.8613,170.47 79.528,162.803 85.5,154.5C 86.1667,154.167 86.8333,153.833 87.5,153.5C 88.8149,152.524 90.1482,151.524 91.5,150.5C 93.1112,151.32 93.7778,152.654 93.5,154.5 Z"/></g>
<g><path style="opacity:1" fill="#642671" d="M 283.5,127.5 C 283.5,128.167 283.5,128.833 283.5,129.5C 280.192,127.716 278.525,128.716 278.5,132.5C 275.668,133.629 273.001,133.129 270.5,131C 265.511,130.501 260.511,130.334 255.5,130.5C 255.5,131.5 255.5,132.5 255.5,133.5C 242.184,134.154 229.017,135.821 216,138.5C 213.835,138.594 211.835,138.26 210,137.5C 208.812,138.563 208.312,139.897 208.5,141.5C 206.712,141.785 205.045,141.452 203.5,140.5C 204.641,139.575 204.641,138.741 203.5,138C 199.614,136.085 196.281,136.919 193.5,140.5C 191.167,141.167 188.833,141.833 186.5,142.5C 186.167,143.167 185.833,143.833 185.5,144.5C 186.981,144.365 188.647,144.699 190.5,145.5C 193.246,143.906 196.079,142.572 199,141.5C 203.277,142.059 203.444,142.726 199.5,143.5C 199.5,144.833 199.5,146.167 199.5,147.5C 202.036,148.349 204.536,149.349 207,150.5C 210.342,147.869 214.176,146.536 218.5,146.5C 210.798,150.129 202.798,153.296 194.5,156C 177.886,167.614 161.552,179.614 145.5,192C 144.695,193.113 144.028,194.279 143.5,195.5C 140.196,196.144 138.862,198.144 139.5,201.5C 138.127,201.343 136.793,201.51 135.5,202C 122.715,214.445 111.049,227.778 100.5,242C 101.731,243.183 101.731,244.349 100.5,245.5C 99.1934,246.816 97.6934,247.816 96,248.5C 89.9684,257.921 83.4684,266.921 76.5,275.5C 75.6996,273.393 75.0329,271.226 74.5,269C 75.1595,266.538 75.4928,264.038 75.5,261.5C 75.5858,260.504 75.2524,259.671 74.5,259C 76.495,256.843 77.8283,254.343 78.5,251.5C 94.9138,217.568 117.914,188.734 147.5,165C 172.749,145.081 201.082,131.581 232.5,124.5C 248.515,123.035 264.515,123.202 280.5,125C 281.942,125.377 282.942,126.21 283.5,127.5 Z"/></g>
<g><path style="opacity:1" fill="#922e3d" d="M 204.5,160.5 C 202.475,162.075 200.475,163.908 198.5,166C 193.754,167.062 190.754,169.895 189.5,174.5C 164.045,188.786 143.211,208.12 127,232.5C 125.438,234.957 124.438,237.624 124,240.5C 124.871,255.284 128.704,269.284 135.5,282.5C 134.853,283.274 134.52,284.274 134.5,285.5C 136.756,290.537 137.756,295.87 137.5,301.5C 130.014,280.711 123.347,259.711 117.5,238.5C 117.338,236.473 117.505,234.473 118,232.5C 141.88,202.444 170.714,178.444 204.5,160.5 Z"/></g>
<g><path style="opacity:1" fill="#d4951a" d="M 314.5,160.5 C 316.313,163.647 318.98,165.647 322.5,166.5C 326.19,171.185 329.857,175.852 333.5,180.5C 332.341,182.377 330.674,182.877 328.5,182C 323.366,176.741 318.699,171.075 314.5,165C 311.148,163.83 307.814,162.664 304.5,161.5C 298.286,155.566 291.286,150.9 283.5,147.5C 282.243,143.929 283.576,142.762 287.5,144C 295.861,150.515 304.861,156.015 314.5,160.5 Z"/></g>
<g><path style="opacity:1" fill="#b65f12" d="M 304.5,161.5 C 307.814,162.664 311.148,163.83 314.5,165C 318.699,171.075 323.366,176.741 328.5,182C 330.674,182.877 332.341,182.377 333.5,180.5C 336.871,183.51 338.205,187.344 337.5,192C 337.167,194.167 336.833,196.333 336.5,198.5C 326.544,185.616 315.878,173.282 304.5,161.5 Z"/></g>
<g><path style="opacity:1" fill="#a8312c" d="M 99.5,185.5 C 98.4324,186.434 97.099,186.768 95.5,186.5C 95.5,185.5 95.5,184.5 95.5,183.5C 95.5,182.167 95.5,180.833 95.5,179.5C 96.8333,179.5 98.1667,179.5 99.5,179.5C 99.5,181.5 99.5,183.5 99.5,185.5 Z"/></g>
<g><path style="opacity:1" fill="#23130e" d="M 59.5,148.5 C 62.5047,149.724 65.5047,149.724 68.5,148.5C 69.4892,152.107 69.8226,155.774 69.5,159.5C 69.5,159.833 69.5,160.167 69.5,160.5C 68.8826,160.611 68.3826,160.944 68,161.5C 66.9701,166.814 66.1368,172.147 65.5,177.5C 65.5,182.833 65.5,188.167 65.5,193.5C 65.1667,196.833 64.8333,200.167 64.5,203.5C 63.2134,207.065 63.2134,210.732 64.5,214.5C 64.0679,217.877 64.7345,220.877 66.5,223.5C 66.1936,226.385 66.5269,229.052 67.5,231.5C 67.4326,232.959 67.7659,234.292 68.5,235.5C 68.5,235.833 68.5,236.167 68.5,236.5C 67.5418,238.302 66.8751,240.302 66.5,242.5C 63.76,235.869 62.0934,228.869 61.5,221.5C 62.1239,221.083 62.4573,220.416 62.5,219.5C 61.6272,209.011 60.6272,198.678 59.5,188.5C 60.7219,176.612 63.0553,164.945 66.5,153.5C 64.7105,152.123 62.7105,151.123 60.5,150.5C 59.7025,150.043 59.3691,149.376 59.5,148.5 Z"/></g>
<g><path style="opacity:1" fill="#974851" d="M 313.5,180.5 C 319.833,186.167 325.833,192.167 331.5,198.5C 324.5,193.5 318.5,187.5 313.5,180.5 Z"/></g>
<g><path style="opacity:1" fill="#956d0d" d="M 87.5,189.5 C 88.6266,190.122 89.6266,190.955 90.5,192C 94.4862,192.499 98.4862,192.666 102.5,192.5C 97.7312,193.889 92.7312,194.556 87.5,194.5C 87.6026,201.386 86.936,208.053 85.5,214.5C 85.9851,206.356 85.3184,198.356 83.5,190.5C 84.8333,190.167 86.1667,189.833 87.5,189.5 Z"/></g>
<g><path style="opacity:1" fill="#330d0a" d="M 281.5,147.5 C 282.167,147.5 282.833,147.5 283.5,147.5C 291.286,150.9 298.286,155.566 304.5,161.5C 315.878,173.282 326.544,185.616 336.5,198.5C 336.833,196.333 337.167,194.167 337.5,192C 338.205,187.344 336.871,183.51 333.5,180.5C 329.857,175.852 326.19,171.185 322.5,166.5C 324.144,166.714 325.644,166.38 327,165.5C 327.422,167.426 328.589,168.426 330.5,168.5C 329.972,169.721 329.305,170.887 328.5,172C 335.818,176.831 339.484,183.664 339.5,192.5C 340.881,193 341.547,194 341.5,195.5C 340.731,198.104 339.064,199.938 336.5,201C 340.704,203.238 343.037,206.738 343.5,211.5C 339.5,207.167 335.5,202.833 331.5,198.5C 325.833,192.167 319.833,186.167 313.5,180.5C 308.566,172.565 302.233,165.898 294.5,160.5C 290.527,155.86 286.194,151.527 281.5,147.5 Z"/></g>
<g><path style="opacity:1" fill="#817673" d="M 59.5,188.5 C 60.6272,198.678 61.6272,209.011 62.5,219.5C 62.4573,220.416 62.1239,221.083 61.5,221.5C 58.4126,210.78 57.7459,199.78 59.5,188.5 Z"/></g>
<g><path style="opacity:1" fill="#547823" d="M 83.5,190.5 C 85.3184,198.356 85.9851,206.356 85.5,214.5C 85.5,216.5 84.5,217.5 82.5,217.5C 80.1667,217.5 77.8333,217.5 75.5,217.5C 75.3398,215.801 75.5065,214.134 76,212.5C 78.1718,211.491 79.3385,209.824 79.5,207.5C 80.1667,207.5 80.5,207.167 80.5,206.5C 83.0207,200.673 81.0207,198.34 74.5,199.5C 75.0916,196.873 75.4249,194.206 75.5,191.5C 77.5767,181.429 80.2433,181.095 83.5,190.5 Z"/></g>
<g><path style="opacity:1" fill="#db7f06" d="M 114.5,191.5 C 105.135,203.379 96.3015,215.712 88,228.5C 84.1587,236.192 79.8254,243.525 75,250.5C 74.2352,250.43 73.7352,250.097 73.5,249.5C 71.9928,244.965 70.9928,240.299 70.5,235.5C 70.8333,234.167 71.1667,232.833 71.5,231.5C 73.2598,227.453 74.2598,223.12 74.5,218.5C 77.3854,218.806 80.0521,218.473 82.5,217.5C 84.5,217.5 85.5,216.5 85.5,214.5C 86.936,208.053 87.6026,201.386 87.5,194.5C 92.7312,194.556 97.7312,193.889 102.5,192.5C 106.354,191.303 108.354,188.636 108.5,184.5C 109.451,183.081 109.784,181.415 109.5,179.5C 112.321,179.539 114.988,180.205 117.5,181.5C 115.5,182.833 113.833,184.5 112.5,186.5C 113.95,187.85 114.617,189.516 114.5,191.5 Z"/></g>
<g><path style="opacity:1" fill="#9c5b2a" d="M 80.5,206.5 C 80.5,207.167 80.1667,207.5 79.5,207.5C 79.5405,202.294 77.5405,201.294 73.5,204.5C 73.4142,203.504 73.7476,202.671 74.5,202C 76.4727,201.505 78.4727,201.338 80.5,201.5C 80.5,203.167 80.5,204.833 80.5,206.5 Z"/></g>
<g><path style="opacity:1" fill="#d44820" d="M 79.5,207.5 C 77.5,207.5 75.5,207.5 73.5,207.5C 73.5,206.5 73.5,205.5 73.5,204.5C 77.5405,201.294 79.5405,202.294 79.5,207.5 Z"/></g>
<g><path style="opacity:1" fill="#460b11" d="M 166.5,195.5 C 170.56,195.485 174.56,195.985 178.5,197C 180.527,198.396 180.86,200.062 179.5,202C 169.747,206.751 162.247,213.918 157,223.5C 156.503,225.81 156.337,228.143 156.5,230.5C 154.533,230.739 152.699,230.406 151,229.5C 148.897,214.715 154.063,203.381 166.5,195.5 Z"/></g>
<g><path style="opacity:1" fill="#270b0c" d="M 331.5,166.5 C 335.734,172.628 339.234,179.295 342,186.5C 343.037,191.875 343.37,197.208 343,202.5C 350.884,212.049 358.384,221.882 365.5,232C 378.877,236.052 389.377,243.885 397,255.5C 399.137,264.614 398.637,273.614 395.5,282.5C 394.876,282.083 394.543,281.416 394.5,280.5C 395.942,277.972 396.442,275.305 396,272.5C 395.667,272.833 395.333,273.167 395,273.5C 394.731,266.458 394.064,259.458 393,252.5C 390.5,248.667 387.333,245.5 383.5,243C 378.455,242.042 373.788,240.209 369.5,237.5C 368.5,238.167 367.5,238.833 366.5,239.5C 365.651,237.106 364.651,234.773 363.5,232.5C 361.35,230.851 359.35,229.018 357.5,227C 357.957,226.586 358.291,226.086 358.5,225.5C 356.175,224.482 354.175,223.149 352.5,221.5C 349.51,218.208 346.51,214.874 343.5,211.5C 343.037,206.738 340.704,203.238 336.5,201C 339.064,199.938 340.731,198.104 341.5,195.5C 341.547,194 340.881,193 339.5,192.5C 339.484,183.664 335.818,176.831 328.5,172C 329.305,170.887 329.972,169.721 330.5,168.5C 330.328,167.508 330.662,166.842 331.5,166.5 Z"/></g>
<g><path style="opacity:1" fill="#716a26" d="M 75.5,191.5 C 75.4249,194.206 75.0916,196.873 74.5,199.5C 81.0207,198.34 83.0207,200.673 80.5,206.5C 80.5,204.833 80.5,203.167 80.5,201.5C 78.4727,201.338 76.4727,201.505 74.5,202C 73.7476,202.671 73.4142,203.504 73.5,204.5C 73.5,205.5 73.5,206.5 73.5,207.5C 75.5,207.5 77.5,207.5 79.5,207.5C 79.3385,209.824 78.1718,211.491 76,212.5C 75.5065,214.134 75.3398,215.801 75.5,217.5C 77.8333,217.5 80.1667,217.5 82.5,217.5C 80.0521,218.473 77.3854,218.806 74.5,218.5C 74.2598,223.12 73.2598,227.453 71.5,231.5C 71.8174,228.428 71.4841,225.428 70.5,222.5C 69.8333,222.833 69.1667,223.167 68.5,223.5C 67.52,226.086 67.1866,228.753 67.5,231.5C 66.5269,229.052 66.1936,226.385 66.5,223.5C 66.6641,220.813 66.4974,218.146 66,215.5C 65.6174,214.944 65.1174,214.611 64.5,214.5C 63.2134,210.732 63.2134,207.065 64.5,203.5C 64.1826,206.572 64.5159,209.572 65.5,212.5C 66.0147,208.919 67.0147,205.586 68.5,202.5C 71.0969,198.966 73.4302,195.3 75.5,191.5 Z"/></g>
<g><path style="opacity:1" fill="#d9b948" d="M 65.5,193.5 C 65.8333,193.5 66.1667,193.5 66.5,193.5C 65.9455,197.012 66.6122,200.012 68.5,202.5C 67.0147,205.586 66.0147,208.919 65.5,212.5C 64.5159,209.572 64.1826,206.572 64.5,203.5C 64.8333,200.167 65.1667,196.833 65.5,193.5 Z"/></g>
<g><path style="opacity:1" fill="#4d1c54" d="M 143.5,195.5 C 143.5,196.5 143.5,197.5 143.5,198.5C 134.93,208.245 126.096,217.911 117,227.5C 114.491,231.194 112.658,235.194 111.5,239.5C 105.825,242.682 101.659,247.349 99,253.5C 98,254.167 97,254.833 96,255.5C 95.439,258.279 94.6056,260.946 93.5,263.5C 91.3366,266.493 89.67,269.827 88.5,273.5C 86.0217,274.722 85.0217,276.722 85.5,279.5C 80.671,281.825 77.671,280.492 76.5,275.5C 83.4684,266.921 89.9684,257.921 96,248.5C 97.6934,247.816 99.1934,246.816 100.5,245.5C 101.731,244.349 101.731,243.183 100.5,242C 111.049,227.778 122.715,214.445 135.5,202C 136.793,201.51 138.127,201.343 139.5,201.5C 138.862,198.144 140.196,196.144 143.5,195.5 Z"/></g>
<g><path style="opacity:1" fill="#84363e" d="M 279.5,219.5 C 277.866,220.161 276.033,220.494 274,220.5C 270.06,220.351 266.227,219.684 262.5,218.5C 262.392,220.514 263.058,222.18 264.5,223.5C 261.224,222.878 259.891,220.878 260.5,217.5C 266.711,218.888 273.045,219.555 279.5,219.5 Z"/></g>
<g><path style="opacity:1" fill="#573718" d="M 64.5,214.5 C 65.1174,214.611 65.6174,214.944 66,215.5C 66.4974,218.146 66.6641,220.813 66.5,223.5C 64.7345,220.877 64.0679,217.877 64.5,214.5 Z"/></g>
<g><path style="opacity:1" fill="#1f0907" d="M 284.5,226.5 C 279.493,226.249 274.493,225.916 269.5,225.5C 267.95,224.559 266.284,223.893 264.5,223.5C 263.058,222.18 262.392,220.514 262.5,218.5C 266.227,219.684 270.06,220.351 274,220.5C 276.033,220.494 277.866,220.161 279.5,219.5C 289.17,217.336 296.003,211.669 300,202.5C 300.497,199.854 300.664,197.187 300.5,194.5C 302.144,194.286 303.644,194.62 305,195.5C 307.193,211.776 300.36,222.109 284.5,226.5 Z"/></g>
<g><path style="opacity:1" fill="#4c6e26" d="M 71.5,231.5 C 71.1667,232.833 70.8333,234.167 70.5,235.5C 69.8333,235.5 69.1667,235.5 68.5,235.5C 67.7659,234.292 67.4326,232.959 67.5,231.5C 67.1866,228.753 67.52,226.086 68.5,223.5C 69.1667,223.167 69.8333,222.833 70.5,222.5C 71.4841,225.428 71.8174,228.428 71.5,231.5 Z"/></g>
<g><path style="opacity:1" fill="#571b21" d="M 269.5,225.5 C 274.493,225.916 279.493,226.249 284.5,226.5C 279.421,227.826 274.421,227.493 269.5,225.5 Z"/></g>
<g><path style="opacity:1" fill="#922c49" d="M 353.5,251.5 C 343.83,253.972 337.83,259.972 335.5,269.5C 335.322,266.784 334.822,264.117 334,261.5C 328.214,254.467 328.047,247.3 333.5,240C 345.874,233.871 352.541,237.704 353.5,251.5 Z"/></g>
<g><path style="opacity:1" fill="#683308" d="M 68.5,235.5 C 69.1667,235.5 69.8333,235.5 70.5,235.5C 70.9928,240.299 71.9928,244.965 73.5,249.5C 70.0853,245.935 68.4187,241.602 68.5,236.5C 68.5,236.167 68.5,235.833 68.5,235.5 Z"/></g>
<g><path style="opacity:1" fill="#360a0c" d="M 352.5,221.5 C 354.175,223.149 356.175,224.482 358.5,225.5C 358.291,226.086 357.957,226.586 357.5,227C 359.35,229.018 361.35,230.851 363.5,232.5C 364.651,234.773 365.651,237.106 366.5,239.5C 367.5,238.833 368.5,238.167 369.5,237.5C 373.788,240.209 378.455,242.042 383.5,243C 387.333,245.5 390.5,248.667 393,252.5C 394.064,259.458 394.731,266.458 395,273.5C 395.333,273.167 395.667,272.833 396,272.5C 396.442,275.305 395.942,277.972 394.5,280.5C 394.543,281.416 394.876,282.083 395.5,282.5C 397.277,285.505 398.277,288.838 398.5,292.5C 398.736,295.609 398.403,298.609 397.5,301.5C 396.686,299.369 396.186,297.036 396,294.5C 395.292,293.619 394.458,292.953 393.5,292.5C 393.97,289.654 393.137,287.321 391,285.5C 383.762,290.398 376.262,294.898 368.5,299C 346.059,302.062 335.059,292.229 335.5,269.5C 337.83,259.972 343.83,253.972 353.5,251.5C 357.582,251.656 361.582,251.156 365.5,250C 366.496,244.472 365.329,239.305 362,234.5C 358.335,230.492 355.168,226.159 352.5,221.5 Z"/></g>
<g><path style="opacity:1" fill="#b33949" d="M 382.5,246.5 C 387.237,248.742 390.404,252.408 392,257.5C 397.258,273.817 391.758,284.65 375.5,290C 370.742,294.599 365.076,297.099 358.5,297.5C 358.205,293.923 359.205,290.757 361.5,288C 361,287.5 360.5,287 360,286.5C 357.205,288.293 354.705,290.46 352.5,293C 350.559,293.743 348.726,293.576 347,292.5C 345.345,287.063 346.845,282.897 351.5,280C 347.061,280.121 342.728,280.954 338.5,282.5C 336.985,276.031 339.318,271.698 345.5,269.5C 346.186,268.152 347.186,266.985 348.5,266C 347.062,265.781 345.729,265.281 344.5,264.5C 345.782,262.821 346.782,260.987 347.5,259C 354.933,258.18 362.267,256.847 369.5,255C 370.499,252.239 372.499,250.906 375.5,251C 376.5,250 377.5,249 378.5,248C 376.545,247.047 374.878,245.713 373.5,244C 376.646,244.236 379.646,245.069 382.5,246.5 Z"/></g>
<g><path style="opacity:1" fill="#a33c47" d="M 382.5,246.5 C 379.646,245.069 376.646,244.236 373.5,244C 374.878,245.713 376.545,247.047 378.5,248C 377.5,249 376.5,250 375.5,251C 372.499,250.906 370.499,252.239 369.5,255C 362.267,256.847 354.933,258.18 347.5,259C 346.782,260.987 345.782,262.821 344.5,264.5C 345.729,265.281 347.062,265.781 348.5,266C 347.186,266.985 346.186,268.152 345.5,269.5C 344.817,267.824 343.483,267.157 341.5,267.5C 341.441,263.452 343.108,260.285 346.5,258C 352.115,256.881 357.782,255.881 363.5,255C 367.537,253.463 371.204,251.296 374.5,248.5C 373.167,246.167 371.833,243.833 370.5,241.5C 375.049,241.429 379.049,243.096 382.5,246.5 Z"/></g>
<g><path style="opacity:1" fill="#3c090a" d="M 272.5,262.5 C 276.846,262.334 281.179,262.501 285.5,263C 286.624,263.249 287.624,263.749 288.5,264.5C 274.451,265.064 264.617,271.73 259,284.5C 257.482,282.386 257.149,280.053 258,277.5C 262.364,271.97 267.198,266.97 272.5,262.5 Z"/></g>
<g><path style="opacity:1" fill="#9d424d" d="M 197.5,268.5 C 196.833,269.167 196.167,269.833 195.5,270.5C 187.701,270.975 180.034,270.308 172.5,268.5C 171.177,270.854 171.843,272.521 174.5,273.5C 176.63,274.711 178.63,276.044 180.5,277.5C 173.501,277.69 170.167,274.356 170.5,267.5C 175.836,268.072 181.17,268.738 186.5,269.5C 190.145,268.884 193.812,268.55 197.5,268.5 Z"/></g>
<g><path style="opacity:1" fill="#370a10" d="M 195.5,270.5 C 193.777,271.8 191.61,272.467 189,272.5C 185.651,272.319 182.317,271.986 179,271.5C 176.992,271.307 175.492,271.974 174.5,273.5C 171.843,272.521 171.177,270.854 172.5,268.5C 180.034,270.308 187.701,270.975 195.5,270.5 Z"/></g>
<g><path style="opacity:1" fill="#1f0a0a" d="M 182.5,277.5 C 181.833,277.5 181.167,277.5 180.5,277.5C 178.63,276.044 176.63,274.711 174.5,273.5C 175.492,271.974 176.992,271.307 179,271.5C 182.317,271.986 185.651,272.319 189,272.5C 191.61,272.467 193.777,271.8 195.5,270.5C 196.167,269.833 196.833,269.167 197.5,268.5C 206.699,266.303 212.699,260.636 215.5,251.5C 217.277,248.495 218.277,245.162 218.5,241.5C 219.822,241.33 220.989,241.663 222,242.5C 223.169,255.658 218.336,265.825 207.5,273C 199.624,276.945 191.291,278.445 182.5,277.5 Z"/></g>
<g><path style="opacity:1" fill="#1e0e12" d="M 66.5,242.5 C 68.2846,246.487 70.7846,250.154 74,253.5C 75.3297,252.418 76.8297,251.751 78.5,251.5C 77.8283,254.343 76.495,256.843 74.5,259C 75.2524,259.671 75.5858,260.504 75.5,261.5C 74.8826,261.389 74.3826,261.056 74,260.5C 70.426,271.293 73.5926,279.293 83.5,284.5C 84.562,282.978 85.2287,281.312 85.5,279.5C 85.0217,276.722 86.0217,274.722 88.5,273.5C 89.67,269.827 91.3366,266.493 93.5,263.5C 93.7505,269.592 91.5838,274.592 87,278.5C 86.3417,280.8 85.8417,283.133 85.5,285.5C 85.3073,287.688 86.1406,289.355 88,290.5C 88.5787,294.203 88.412,297.869 87.5,301.5C 86.8242,297.54 85.8242,293.54 84.5,289.5C 77.8926,287.393 73.3926,283.06 71,276.5C 70.6667,268.5 70.3333,260.5 70,252.5C 68.1319,249.395 66.9652,246.062 66.5,242.5 Z"/></g>
<g><path style="opacity:1" fill="#9e3b49" d="M 182.5,277.5 C 191.291,278.445 199.624,276.945 207.5,273C 218.336,265.825 223.169,255.658 222,242.5C 220.989,241.663 219.822,241.33 218.5,241.5C 218.277,245.162 217.277,248.495 215.5,251.5C 215.457,248.09 215.957,244.757 217,241.5C 218.399,240.773 219.899,240.273 221.5,240C 221.167,239.667 220.833,239.333 220.5,239C 221.784,238.316 222.951,238.483 224,239.5C 225.009,245.391 224.509,251.057 222.5,256.5C 223.813,258.392 223.646,260.059 222,261.5C 221.667,261.167 221.333,260.833 221,260.5C 220.64,262.421 219.806,264.088 218.5,265.5C 219.55,267.102 218.883,267.935 216.5,268C 215.809,269.067 215.309,270.234 215,271.5C 214.586,271.043 214.086,270.709 213.5,270.5C 204.393,278.345 194.059,280.678 182.5,277.5 Z"/></g>
<g><path style="opacity:1" fill="#532b53" d="M 75.5,261.5 C 75.4928,264.038 75.1595,266.538 74.5,269C 75.0329,271.226 75.6996,273.393 76.5,275.5C 77.671,280.492 80.671,281.825 85.5,279.5C 85.2287,281.312 84.562,282.978 83.5,284.5C 73.5926,279.293 70.426,271.293 74,260.5C 74.3826,261.056 74.8826,261.389 75.5,261.5 Z"/></g>
<g><path style="opacity:1" fill="#a4371d" d="M 122.5,290.5 C 124.881,294.481 125.881,298.814 125.5,303.5C 123.102,300.382 121.935,296.716 122,292.5C 120.103,290.984 117.936,290.317 115.5,290.5C 115.365,296.181 115.032,301.848 114.5,307.5C 114.167,307.5 113.833,307.5 113.5,307.5C 113.966,301.509 114.299,295.509 114.5,289.5C 117.237,289.401 119.904,289.735 122.5,290.5 Z"/></g>
<g><path style="opacity:1" fill="#a1313c" d="M 125.5,303.5 C 127.104,304.287 127.771,305.62 127.5,307.5C 127.721,311.832 126.721,315.832 124.5,319.5C 123.833,319.5 123.167,319.5 122.5,319.5C 125.741,315.55 126.575,311.217 125,306.5C 123.98,307.891 123.147,309.391 122.5,311C 118.389,313.421 115.722,312.254 114.5,307.5C 115.032,301.848 115.365,296.181 115.5,290.5C 117.936,290.317 120.103,290.984 122,292.5C 121.935,296.716 123.102,300.382 125.5,303.5 Z"/></g>
<g><path style="opacity:1" fill="#a13250" d="M 317.5,290.5 C 323.072,289.99 328.405,290.823 333.5,293C 333.81,297.259 334.81,301.593 336.5,306C 328.379,312.96 319.546,318.46 310,322.5C 304.334,321.76 300.501,318.76 298.5,313.5C 298.132,309.152 298.632,304.819 300,300.5C 300.691,297.734 302.191,297.067 304.5,298.5C 308.515,295.112 312.848,292.446 317.5,290.5 Z"/></g>
<g><path style="opacity:1" fill="#dc790f" d="M 115.5,268.5 C 116.819,274.05 118.986,279.383 122,284.5C 122.495,286.473 122.662,288.473 122.5,290.5C 119.904,289.735 117.237,289.401 114.5,289.5C 114.299,295.509 113.966,301.509 113.5,307.5C 112.766,308.878 112.099,310.378 111.5,312C 109.934,312.765 108.601,312.598 107.5,311.5C 107.618,306.267 105.785,301.934 102,298.5C 99.2774,299.944 98.1107,302.278 98.5,305.5C 99.0531,308.817 99.3865,312.15 99.5,315.5C 98.8784,318.776 96.8784,320.109 93.5,319.5C 93.154,314.784 92.4873,310.117 91.5,305.5C 91.5,305.167 91.5,304.833 91.5,304.5C 91.5,303.833 91.5,303.167 91.5,302.5C 93.8979,299.352 95.5645,295.685 96.5,291.5C 98.308,285.199 102.141,283.866 108,287.5C 109.289,285.355 110.122,283.022 110.5,280.5C 112.004,277.505 114.004,274.839 116.5,272.5C 115.754,271.264 115.421,269.93 115.5,268.5 Z"/></g>
<g><path style="opacity:1" fill="#c8402c" d="M 107.5,311.5 C 105.236,312.219 102.903,312.552 100.5,312.5C 100.737,313.791 100.404,314.791 99.5,315.5C 99.3865,312.15 99.0531,308.817 98.5,305.5C 98.1107,302.278 99.2774,299.944 102,298.5C 105.785,301.934 107.618,306.267 107.5,311.5 Z"/></g>
<g><path style="opacity:1" fill="#9b314a" d="M 217.5,303.5 C 224.721,305.072 231.388,307.906 237.5,312C 238.551,315.188 238.551,318.688 237.5,322.5C 231.188,329.138 223.854,333.305 215.5,335C 211.5,335.667 207.5,335.667 203.5,335C 203.833,334.667 204.167,334.333 204.5,334C 202.747,330.525 201.414,326.859 200.5,323C 201.228,319.372 202.394,315.872 204,312.5C 208.9,310.1 213.4,307.1 217.5,303.5 Z"/></g>
<g><path style="opacity:1" fill="#952838" d="M 135.5,282.5 C 138.559,287.613 141.392,292.947 144,298.5C 151.732,306.96 158.232,316.294 163.5,326.5C 167.18,327.938 170.847,329.438 174.5,331C 172.203,332.263 171.37,334.097 172,336.5C 176.71,343.032 181.876,349.032 187.5,354.5C 185.224,354.756 184.057,356.09 184,358.5C 183.333,357.833 182.667,357.167 182,356.5C 180.601,356.501 179.101,356.835 177.5,357.5C 176.692,357.192 176.025,356.692 175.5,356C 176.5,355 177.5,354 178.5,353C 176.346,351.68 174.846,349.847 174,347.5C 173.751,348.624 173.251,349.624 172.5,350.5C 165.589,346.729 158.589,345.729 151.5,347.5C 151.358,351.981 149.025,354.648 144.5,355.5C 143.333,353.921 142,352.588 140.5,351.5C 139.272,350.694 138.272,349.694 137.5,348.5C 140.703,340.349 142.369,331.849 142.5,323C 141.14,315.755 139.473,308.588 137.5,301.5C 137.756,295.87 136.756,290.537 134.5,285.5C 134.52,284.274 134.853,283.274 135.5,282.5 Z"/></g>
<g><path style="opacity:1" fill="#260c0c" d="M 398.5,292.5 C 401.141,300.527 402.975,308.86 404,317.5C 416.58,324.993 421.913,335.993 420,350.5C 418.508,356.463 417.341,362.463 416.5,368.5C 415.167,368.5 414.5,369.167 414.5,370.5C 412.748,370.582 411.748,369.749 411.5,368C 413.466,364.475 415.132,360.808 416.5,357C 416.167,356.667 415.833,356.333 415.5,356C 416.376,354.414 417.376,352.914 418.5,351.5C 418.042,347.145 417.042,342.978 415.5,339C 415.735,338.127 416.069,337.293 416.5,336.5C 414.784,335.451 413.451,334.118 412.5,332.5C 412.443,331.391 412.11,330.391 411.5,329.5C 410.97,326.969 409.636,324.969 407.5,323.5C 404.885,322.238 402.218,321.072 399.5,320C 401.436,317.971 401.27,315.805 399,313.5C 398.824,309.312 398.324,305.312 397.5,301.5C 398.403,298.609 398.736,295.609 398.5,292.5 Z"/></g>
<g><path style="opacity:1" fill="#853541" d="M 393.5,292.5 C 394.458,292.953 395.292,293.619 396,294.5C 396.186,297.036 396.686,299.369 397.5,301.5C 397.666,306.844 397.499,312.177 397,317.5C 388.035,317.863 380.868,321.53 375.5,328.5C 375.995,326.518 376.495,324.518 377,322.5C 382.545,318.736 388.712,316.736 395.5,316.5C 395.824,309.646 395.491,302.979 394.5,296.5C 394.167,295.167 393.833,293.833 393.5,292.5 Z"/></g>
<g><path style="opacity:1" fill="#9e313e" d="M 411.5,329.5 C 412.11,330.391 412.443,331.391 412.5,332.5C 417.643,352.531 412.643,369.531 397.5,383.5C 388.686,386.177 381.019,384.344 374.5,378C 361.106,379.665 359.273,376.165 369,367.5C 368.341,349.805 374.508,334.971 387.5,323C 396.835,320.164 404.835,322.331 411.5,329.5 Z"/></g>
<g><path style="opacity:1" fill="#2c0e08" d="M 117.5,238.5 C 123.347,259.711 130.014,280.711 137.5,301.5C 139.473,308.588 141.14,315.755 142.5,323C 142.369,331.849 140.703,340.349 137.5,348.5C 136.759,350.354 135.759,352.021 134.5,353.5C 124.159,367.953 110.159,372.953 92.5,368.5C 85.3699,364.423 78.7032,359.589 72.5,354C 65.9569,352.945 60.9569,355.111 57.5,360.5C 55.8639,361.749 54.6972,363.416 54,365.5C 53.5499,369.188 53.7166,372.854 54.5,376.5C 52.0728,374.492 51.0728,371.826 51.5,368.5C 50.9472,364.103 52.6139,360.937 56.5,359C 54.6379,353.994 53.8046,348.828 54,343.5C 57.4675,338.969 61.8009,335.636 67,333.5C 69.7372,334.61 72.5706,334.777 75.5,334C 76.6667,333.5 77.5,332.667 78,331.5C 78.5613,332.022 79.228,332.355 80,332.5C 82.0466,331.391 84.2133,330.724 86.5,330.5C 86.5945,326.646 88.4278,323.979 92,322.5C 92.4025,318.259 91.9025,314.093 90.5,310C 90.5085,308.293 90.8418,306.793 91.5,305.5C 92.4873,310.117 93.154,314.784 93.5,319.5C 93.5,320.833 93.5,322.167 93.5,323.5C 91.8437,325.46 90.177,327.46 88.5,329.5C 88.1667,330.5 87.5,331.167 86.5,331.5C 81.558,333.37 76.558,335.036 71.5,336.5C 66.9057,335.657 63.2391,336.991 60.5,340.5C 58.2475,340.916 56.7475,342.249 56,344.5C 55.0885,348.452 55.7552,352.119 58,355.5C 61.6667,353.167 64.6667,350.167 67,346.5C 74.7185,353.274 82.8851,359.441 91.5,365C 98.7594,367.623 106.093,367.957 113.5,366C 114.942,365.623 115.942,364.79 116.5,363.5C 122.307,363.014 126.807,360.347 130,355.5C 137.721,341.749 140.054,327.082 137,311.5C 131.625,294.536 125.792,277.869 119.5,261.5C 118.156,254.801 115.823,248.468 112.5,242.5C 111.614,243.325 111.281,244.325 111.5,245.5C 111.167,245.5 110.833,245.5 110.5,245.5C 107.677,248.475 105.344,251.808 103.5,255.5C 95.6876,265.386 91.021,276.719 89.5,289.5C 90.2653,292.096 90.5987,294.763 90.5,297.5C 90.2155,299.415 90.5489,301.081 91.5,302.5C 91.5,303.167 91.5,303.833 91.5,304.5C 90.2921,303.766 88.9587,303.433 87.5,303.5C 87.5,302.833 87.5,302.167 87.5,301.5C 88.412,297.869 88.5787,294.203 88,290.5C 86.1406,289.355 85.3073,287.688 85.5,285.5C 85.8417,283.133 86.3417,280.8 87,278.5C 91.5838,274.592 93.7505,269.592 93.5,263.5C 94.6056,260.946 95.439,258.279 96,255.5C 97,254.833 98,254.167 99,253.5C 101.659,247.349 105.825,242.682 111.5,239.5C 112.827,238.2 114.16,236.867 115.5,235.5C 116.176,236.602 116.842,237.602 117.5,238.5 Z"/></g>
<g><path style="opacity:1" fill="#95401c" d="M 119.5,332.5 C 122.495,332.294 125.162,332.96 127.5,334.5C 126.721,337.545 125.387,340.211 123.5,342.5C 126.283,333.598 123.949,331.598 116.5,336.5C 116.738,334.596 117.738,333.262 119.5,332.5 Z"/></g>
<g><path style="opacity:1" fill="#b5981d" d="M 88.5,329.5 C 90.861,329.674 93.1944,330.007 95.5,330.5C 99.0184,332.966 103.018,333.966 107.5,333.5C 105.852,334.927 103.852,335.76 101.5,336C 98.1832,336.498 94.8499,336.665 91.5,336.5C 88.5,336.167 86.8333,334.5 86.5,331.5C 87.5,331.167 88.1667,330.5 88.5,329.5 Z"/></g>
<g><path style="opacity:1" fill="#a33922" d="M 122.5,319.5 C 120.354,323.395 117.021,325.561 112.5,326C 110.487,329.069 107.82,330.735 104.5,331C 101.947,327.184 98.9472,327.017 95.5,330.5C 93.1944,330.007 90.861,329.674 88.5,329.5C 90.177,327.46 91.8437,325.46 93.5,323.5C 95.4211,325.419 97.9211,326.419 101,326.5C 104.501,325.766 108.001,325.1 111.5,324.5C 111.5,322.833 111.5,321.167 111.5,319.5C 115.167,319.5 118.833,319.5 122.5,319.5 Z"/></g>
<g><path style="opacity:1" fill="#de9912" d="M 122.5,319.5 C 123.167,319.5 123.833,319.5 124.5,319.5C 125.833,319.5 127.167,319.5 128.5,319.5C 128.356,323.603 126.689,326.936 123.5,329.5C 123.709,330.086 124.043,330.586 124.5,331C 122.618,331.198 120.952,331.698 119.5,332.5C 117.738,333.262 116.738,334.596 116.5,336.5C 116.167,336.5 115.833,336.5 115.5,336.5C 113.208,334.733 110.542,333.733 107.5,333.5C 103.018,333.966 99.0184,332.966 95.5,330.5C 98.9472,327.017 101.947,327.184 104.5,331C 107.82,330.735 110.487,329.069 112.5,326C 117.021,325.561 120.354,323.395 122.5,319.5 Z"/></g>
<g><path style="opacity:1" fill="#cd7213" d="M 127.5,307.5 C 129.933,311.192 130.933,315.359 130.5,320C 130.813,325.227 129.813,330.061 127.5,334.5C 125.162,332.96 122.495,332.294 119.5,332.5C 120.952,331.698 122.618,331.198 124.5,331C 124.043,330.586 123.709,330.086 123.5,329.5C 126.689,326.936 128.356,323.603 128.5,319.5C 127.167,319.5 125.833,319.5 124.5,319.5C 126.721,315.832 127.721,311.832 127.5,307.5 Z"/></g>
<g><path style="opacity:1" fill="#8f2f41" d="M 122.5,319.5 C 118.833,319.5 115.167,319.5 111.5,319.5C 111.5,321.167 111.5,322.833 111.5,324.5C 108.001,325.1 104.501,325.766 101,326.5C 97.9211,326.419 95.4211,325.419 93.5,323.5C 93.5,322.167 93.5,320.833 93.5,319.5C 96.8784,320.109 98.8784,318.776 99.5,315.5C 100.404,314.791 100.737,313.791 100.5,312.5C 102.903,312.552 105.236,312.219 107.5,311.5C 108.601,312.598 109.934,312.765 111.5,312C 112.099,310.378 112.766,308.878 113.5,307.5C 113.833,307.5 114.167,307.5 114.5,307.5C 115.722,312.254 118.389,313.421 122.5,311C 123.147,309.391 123.98,307.891 125,306.5C 126.575,311.217 125.741,315.55 122.5,319.5 Z"/></g>
<g><path style="opacity:1" fill="#903a16" d="M 96.5,291.5 C 95.5645,295.685 93.8979,299.352 91.5,302.5C 90.5489,301.081 90.2155,299.415 90.5,297.5C 91.5832,297.461 92.5832,297.127 93.5,296.5C 94.0652,294.456 95.0652,292.79 96.5,291.5 Z"/></g>
<g><path style="opacity:1" fill="#902a38" d="M 102.5,274.5 C 101.833,276.833 101.167,279.167 100.5,281.5C 97.1881,281.265 96.3547,282.265 98,284.5C 99.5671,283.144 101.4,282.477 103.5,282.5C 103.5,281.5 103.5,280.5 103.5,279.5C 105.5,279.5 107.5,279.5 109.5,279.5C 109.229,277.62 109.896,276.287 111.5,275.5C 110.962,277.117 110.629,278.784 110.5,280.5C 110.122,283.022 109.289,285.355 108,287.5C 102.141,283.866 98.308,285.199 96.5,291.5C 95.0652,292.79 94.0652,294.456 93.5,296.5C 92.5832,297.127 91.5832,297.461 90.5,297.5C 90.5987,294.763 90.2653,292.096 89.5,289.5C 90.1174,289.611 90.6174,289.944 91,290.5C 92.8956,287.762 94.229,284.762 95,281.5C 97.09,278.572 99.59,276.239 102.5,274.5 Z"/></g>
<g><path style="opacity:1" fill="#8c2743" d="M 111.5,275.5 C 109.896,276.287 109.229,277.62 109.5,279.5C 107.5,279.5 105.5,279.5 103.5,279.5C 103.5,280.5 103.5,281.5 103.5,282.5C 101.4,282.477 99.5671,283.144 98,284.5C 96.3547,282.265 97.1881,281.265 100.5,281.5C 101.167,279.167 101.833,276.833 102.5,274.5C 103.089,272.648 103.756,270.815 104.5,269C 107.438,267.192 110.438,265.692 113.5,264.5C 113.039,268.212 112.373,271.879 111.5,275.5 Z"/></g>
<g><path style="opacity:1" fill="#b13c1b" d="M 103.5,255.5 C 101.746,258.652 100.913,261.985 101,265.5C 101.333,265.167 101.667,264.833 102,264.5C 102.519,265.516 103.353,266.182 104.5,266.5C 107.522,264.995 110.522,263.661 113.5,262.5C 114.738,264.214 115.405,266.214 115.5,268.5C 115.421,269.93 115.754,271.264 116.5,272.5C 114.004,274.839 112.004,277.505 110.5,280.5C 110.629,278.784 110.962,277.117 111.5,275.5C 112.373,271.879 113.039,268.212 113.5,264.5C 110.438,265.692 107.438,267.192 104.5,269C 103.756,270.815 103.089,272.648 102.5,274.5C 99.59,276.239 97.09,278.572 95,281.5C 94.229,284.762 92.8956,287.762 91,290.5C 90.6174,289.944 90.1174,289.611 89.5,289.5C 91.021,276.719 95.6876,265.386 103.5,255.5 Z"/></g>
<g><path style="opacity:1" fill="#bf8119" d="M 119.5,261.5 C 116.538,256.328 113.871,250.995 111.5,245.5C 111.281,244.325 111.614,243.325 112.5,242.5C 115.823,248.468 118.156,254.801 119.5,261.5 Z"/></g>
<g><path style="opacity:1" fill="#c33a0d" d="M 110.5,245.5 C 110.833,245.5 111.167,245.5 111.5,245.5C 111.437,251.264 112.103,256.93 113.5,262.5C 110.522,263.661 107.522,264.995 104.5,266.5C 103.353,266.182 102.519,265.516 102,264.5C 101.667,264.833 101.333,265.167 101,265.5C 100.913,261.985 101.746,258.652 103.5,255.5C 106.831,252.828 109.165,249.495 110.5,245.5 Z"/></g>
<g><path style="opacity:1" fill="#92371a" d="M 110.5,245.5 C 109.165,249.495 106.831,252.828 103.5,255.5C 105.344,251.808 107.677,248.475 110.5,245.5 Z"/></g>
<g><path style="opacity:1" fill="#6d581f" d="M 107.5,333.5 C 110.542,333.733 113.208,334.733 115.5,336.5C 114.833,336.5 114.167,336.5 113.5,336.5C 112.258,335.957 110.925,335.623 109.5,335.5C 104.29,337.088 98.9569,337.755 93.5,337.5C 92.5084,337.672 91.8417,337.338 91.5,336.5C 94.8499,336.665 98.1832,336.498 101.5,336C 103.852,335.76 105.852,334.927 107.5,333.5 Z"/></g>
<g><path style="opacity:1" fill="#6a543b" d="M 113.5,336.5 C 111.852,337.927 109.852,338.76 107.5,339C 102.748,339.773 98.0815,339.607 93.5,338.5C 93.5,338.167 93.5,337.833 93.5,337.5C 98.9569,337.755 104.29,337.088 109.5,335.5C 110.925,335.623 112.258,335.957 113.5,336.5 Z"/></g>
<g><path style="opacity:1" fill="#9c352e" d="M 86.5,331.5 C 86.8333,334.5 88.5,336.167 91.5,336.5C 91.8417,337.338 92.5084,337.672 93.5,337.5C 93.5,337.833 93.5,338.167 93.5,338.5C 92.7611,338.369 92.0944,338.536 91.5,339C 94.3286,340.247 96.9952,341.747 99.5,343.5C 91.7495,350.336 93.0828,353.336 103.5,352.5C 107.595,352.156 111.595,351.49 115.5,350.5C 115.5,349.5 115.5,348.5 115.5,347.5C 116.833,347.5 118.167,347.5 119.5,347.5C 117.954,350.2 115.621,352.033 112.5,353C 105.667,355.315 98.9999,354.982 92.5,352C 85.8297,346.131 78.8297,340.964 71.5,336.5C 76.558,335.036 81.558,333.37 86.5,331.5 Z"/></g>
<g><path style="opacity:1" fill="#903644" d="M 123.5,342.5 C 122.92,344.749 121.587,346.415 119.5,347.5C 118.167,347.5 116.833,347.5 115.5,347.5C 115.5,348.5 115.5,349.5 115.5,350.5C 111.595,351.49 107.595,352.156 103.5,352.5C 93.0828,353.336 91.7495,350.336 99.5,343.5C 96.9952,341.747 94.3286,340.247 91.5,339C 92.0944,338.536 92.7611,338.369 93.5,338.5C 98.0815,339.607 102.748,339.773 107.5,339C 109.852,338.76 111.852,337.927 113.5,336.5C 114.167,336.5 114.833,336.5 115.5,336.5C 115.833,336.5 116.167,336.5 116.5,336.5C 123.949,331.598 126.283,333.598 123.5,342.5 Z"/></g>
<g><path style="opacity:1" fill="#af384a" d="M 295.5,400.5 C 294.199,399.36 293.032,398.027 292,396.5C 288.599,400.448 284.433,402.615 279.5,403C 274.593,397.422 269.093,392.589 263,388.5C 262.685,386.414 262.185,384.414 261.5,382.5C 262.975,374.886 264.309,367.219 265.5,359.5C 265.506,353.836 268.173,350.169 273.5,348.5C 277.185,347.061 281.018,346.061 285,345.5C 286.711,345.439 288.044,346.106 289,347.5C 289.561,346.978 290.228,346.645 291,346.5C 294.555,349.808 298.222,353.141 302,356.5C 304.012,361.562 304.845,366.895 304.5,372.5C 304.056,379.551 303.223,386.551 302,393.5C 300.117,394.653 299.284,396.319 299.5,398.5C 297.801,398.527 296.467,399.194 295.5,400.5 Z"/></g>
<g><path style="opacity:1" fill="#962c3e" d="M 394.5,296.5 C 395.491,302.979 395.824,309.646 395.5,316.5C 388.712,316.736 382.545,318.736 377,322.5C 376.495,324.518 375.995,326.518 375.5,328.5C 369.052,339.96 365.885,352.293 366,365.5C 353.398,377.552 338.565,385.552 321.5,389.5C 318.934,389.344 316.434,389.678 314,390.5C 312.5,390.333 311.667,389.5 311.5,388C 312.652,377.673 312.652,367.506 311.5,357.5C 312.708,356.766 314.041,356.433 315.5,356.5C 315.33,357.822 315.663,358.989 316.5,360C 334.877,358.562 350.377,351.062 363,337.5C 366.681,326.153 373.681,317.486 384,311.5C 384.725,309.051 385.725,306.717 387,304.5C 388.396,306.527 390.062,306.86 392,305.5C 392.993,302.526 393.826,299.526 394.5,296.5 Z"/></g>
<g><path style="opacity:1" fill="#94273f" d="M 187.5,354.5 C 189.554,355.609 191.721,356.609 194,357.5C 198.286,354.941 202.786,352.774 207.5,351C 212.833,350.333 218.167,350.333 223.5,351C 225.124,352.117 226.124,353.617 226.5,355.5C 225.166,359.344 222.832,362.511 219.5,365C 219.728,365.399 220.062,365.565 220.5,365.5C 214.044,370.453 208.044,375.953 202.5,382C 202.833,382.333 203.167,382.667 203.5,383C 200.855,383.591 200.189,384.925 201.5,387C 200.293,388.3 199.626,389.8 199.5,391.5C 175.836,386.667 156.67,374.667 142,355.5C 141.209,354.255 140.709,352.922 140.5,351.5C 142,352.588 143.333,353.921 144.5,355.5C 149.025,354.648 151.358,351.981 151.5,347.5C 158.589,345.729 165.589,346.729 172.5,350.5C 173.251,349.624 173.751,348.624 174,347.5C 174.846,349.847 176.346,351.68 178.5,353C 177.5,354 176.5,355 175.5,356C 176.025,356.692 176.692,357.192 177.5,357.5C 179.101,356.835 180.601,356.501 182,356.5C 182.667,357.167 183.333,357.833 184,358.5C 184.057,356.09 185.224,354.756 187.5,354.5 Z"/></g>
<g><path style="opacity:1" fill="#e28c09" d="M 111.5,245.5 C 113.871,250.995 116.538,256.328 119.5,261.5C 125.792,277.869 131.625,294.536 137,311.5C 140.054,327.082 137.721,341.749 130,355.5C 126.807,360.347 122.307,363.014 116.5,363.5C 105.645,364.862 95.6448,362.695 86.5,357C 82.4364,353.274 78.7698,349.274 75.5,345C 69.4825,343.779 63.9825,344.945 59,348.5C 58.2815,345.593 58.7815,342.926 60.5,340.5C 63.2391,336.991 66.9057,335.657 71.5,336.5C 78.8297,340.964 85.8297,346.131 92.5,352C 98.9999,354.982 105.667,355.315 112.5,353C 115.621,352.033 117.954,350.2 119.5,347.5C 121.587,346.415 122.92,344.749 123.5,342.5C 125.387,340.211 126.721,337.545 127.5,334.5C 129.813,330.061 130.813,325.227 130.5,320C 130.933,315.359 129.933,311.192 127.5,307.5C 127.771,305.62 127.104,304.287 125.5,303.5C 125.881,298.814 124.881,294.481 122.5,290.5C 122.662,288.473 122.495,286.473 122,284.5C 118.986,279.383 116.819,274.05 115.5,268.5C 115.405,266.214 114.738,264.214 113.5,262.5C 112.103,256.93 111.437,251.264 111.5,245.5 Z"/></g>
<g><path style="opacity:1" fill="#ac4351" d="M 265.5,359.5 C 264.309,367.219 262.975,374.886 261.5,382.5C 260.167,382.5 258.833,382.5 257.5,382.5C 257.736,379.774 256.903,377.441 255,375.5C 254.586,375.957 254.086,376.291 253.5,376.5C 251.68,375.117 249.68,374.117 247.5,373.5C 248.542,372.209 249.708,372.209 251,373.5C 252,372.833 253,372.167 254,371.5C 255.316,367.715 256.816,364.048 258.5,360.5C 257.758,359.713 256.925,359.047 256,358.5C 255.798,360.256 255.298,361.922 254.5,363.5C 252.812,361.971 251.479,360.137 250.5,358C 252.931,357.705 254.764,356.538 256,354.5C 256.333,355.167 256.667,355.833 257,356.5C 257.295,354.069 258.462,352.236 260.5,351C 257.854,350.503 255.187,350.336 252.5,350.5C 252.881,352.942 252.214,353.609 250.5,352.5C 249.209,354.959 247.209,356.459 244.5,357C 243.23,362.635 240.23,363.802 235.5,360.5C 237.532,357.632 239.365,354.632 241,351.5C 242.129,349.859 243.629,348.859 245.5,348.5C 242.798,351.881 240.465,355.548 238.5,359.5C 238.808,360.308 239.308,360.975 240,361.5C 243.524,354.635 248.858,349.968 256,347.5C 259.358,347.859 262.525,348.693 265.5,350C 258.159,359.033 255.992,369.2 259,380.5C 260.106,373.049 262.273,366.049 265.5,359.5 Z"/></g>
<g><path style="opacity:1" fill="#1f1311" d="M 87.5,303.5 C 88.9587,303.433 90.2921,303.766 91.5,304.5C 91.5,304.833 91.5,305.167 91.5,305.5C 90.8418,306.793 90.5085,308.293 90.5,310C 91.9025,314.093 92.4025,318.259 92,322.5C 88.4278,323.979 86.5945,326.646 86.5,330.5C 84.2133,330.724 82.0466,331.391 80,332.5C 79.228,332.355 78.5613,332.022 78,331.5C 77.5,332.667 76.6667,333.5 75.5,334C 72.5706,334.777 69.7372,334.61 67,333.5C 61.8009,335.636 57.4675,338.969 54,343.5C 53.8046,348.828 54.6379,353.994 56.5,359C 52.6139,360.937 50.9472,364.103 51.5,368.5C 51.0728,371.826 52.0728,374.492 54.5,376.5C 55.0652,378.42 56.0652,380.087 57.5,381.5C 59.8585,383.529 62.1918,385.529 64.5,387.5C 60.2033,386.934 56.7033,384.934 54,381.5C 51.9716,377.568 50.4716,373.568 49.5,369.5C 49.9587,360.08 51.1253,350.746 53,341.5C 55.921,337.908 59.421,335.075 63.5,333C 69.7915,331.34 76.1248,330.007 82.5,329C 84.6667,326.833 86.8333,324.667 89,322.5C 88.5893,316.2 88.0893,309.867 87.5,303.5 Z"/></g>
<g><path style="opacity:1" fill="#a65a0a" d="M 60.5,340.5 C 58.7815,342.926 58.2815,345.593 59,348.5C 63.9825,344.945 69.4825,343.779 75.5,345C 78.7698,349.274 82.4364,353.274 86.5,357C 95.6448,362.695 105.645,364.862 116.5,363.5C 115.942,364.79 114.942,365.623 113.5,366C 106.093,367.957 98.7594,367.623 91.5,365C 82.8851,359.441 74.7185,353.274 67,346.5C 64.6667,350.167 61.6667,353.167 58,355.5C 55.7552,352.119 55.0885,348.452 56,344.5C 56.7475,342.249 58.2475,340.916 60.5,340.5 Z"/></g>
<g><path style="opacity:1" fill="#a3303c" d="M 92.5,368.5 C 98.6339,370.275 104.301,373.108 109.5,377C 107.548,380.079 105.215,380.246 102.5,377.5C 98.7326,380.378 94.7326,382.712 90.5,384.5C 87.6216,388.04 83.9549,390.373 79.5,391.5C 74.8756,391.698 72.8756,389.531 73.5,385C 73.7433,380.727 75.7433,377.393 79.5,375C 78.1667,374.333 76.8333,374.333 75.5,375C 73.3549,378.219 71.3549,381.552 69.5,385C 68.1667,385.667 66.8333,385.667 65.5,385C 63.9368,383.264 62.2701,381.764 60.5,380.5C 62.0469,375.739 64.3802,371.406 67.5,367.5C 64.6755,367.081 62.5088,368.081 61,370.5C 60.6667,370.167 60.3333,369.833 60,369.5C 58.6035,377.248 57.1035,377.081 55.5,369C 56.4176,366.239 57.0843,363.406 57.5,360.5C 60.9569,355.111 65.9569,352.945 72.5,354C 78.7032,359.589 85.3699,364.423 92.5,368.5 Z"/></g>
<g><path style="opacity:1" fill="#902939" d="M 134.5,353.5 C 138.793,357.802 142.793,362.469 146.5,367.5C 142.706,373.459 137.372,377.293 130.5,379C 117.176,380.975 103.842,382.808 90.5,384.5C 94.7326,382.712 98.7326,380.378 102.5,377.5C 105.215,380.246 107.548,380.079 109.5,377C 104.301,373.108 98.6339,370.275 92.5,368.5C 110.159,372.953 124.159,367.953 134.5,353.5 Z"/></g>
<g><path style="opacity:1" fill="#9f4450" d="M 274.5,405.5 C 281.068,407.299 287.401,406.799 293.5,404C 294.085,402.698 294.751,401.531 295.5,400.5C 296.467,399.194 297.801,398.527 299.5,398.5C 299.284,396.319 300.117,394.653 302,393.5C 303.223,386.551 304.056,379.551 304.5,372.5C 304.845,366.895 304.012,361.562 302,356.5C 298.222,353.141 294.555,349.808 291,346.5C 290.228,346.645 289.561,346.978 289,347.5C 288.044,346.106 286.711,345.439 285,345.5C 281.018,346.061 277.185,347.061 273.5,348.5C 281.286,342.104 289.286,341.937 297.5,348C 304.318,354.158 307.318,361.825 306.5,371C 306.416,378.254 305.583,385.42 304,392.5C 301.298,398.54 297.131,403.373 291.5,407C 285.564,407.943 279.897,407.443 274.5,405.5 Z"/></g>
<g><path style="opacity:1" fill="#962939" d="M 220.5,365.5 C 229.235,368.906 238.235,371.572 247.5,373.5C 249.68,374.117 251.68,375.117 253.5,376.5C 254.086,376.291 254.586,375.957 255,375.5C 256.903,377.441 257.736,379.774 257.5,382.5C 258.833,382.5 260.167,382.5 261.5,382.5C 262.185,384.414 262.685,386.414 263,388.5C 269.093,392.589 274.593,397.422 279.5,403C 284.433,402.615 288.599,400.448 292,396.5C 293.032,398.027 294.199,399.36 295.5,400.5C 294.751,401.531 294.085,402.698 293.5,404C 287.401,406.799 281.068,407.299 274.5,405.5C 267.041,404.101 260.374,401.101 254.5,396.5C 254.5,396.167 254.5,395.833 254.5,395.5C 253.841,391.006 251.175,389.339 246.5,390.5C 246.5,391.833 246.5,393.167 246.5,394.5C 236.003,394.976 225.67,395.642 215.5,396.5C 211.565,395.565 207.565,394.731 203.5,394C 201.68,393.8 200.347,392.966 199.5,391.5C 199.626,389.8 200.293,388.3 201.5,387C 200.189,384.925 200.855,383.591 203.5,383C 203.167,382.667 202.833,382.333 202.5,382C 208.044,375.953 214.044,370.453 220.5,365.5 Z"/></g>
<g><path style="opacity:1" fill="#330c0f" d="M 397.5,301.5 C 398.324,305.312 398.824,309.312 399,313.5C 401.27,315.805 401.436,317.971 399.5,320C 402.218,321.072 404.885,322.238 407.5,323.5C 409.636,324.969 410.97,326.969 411.5,329.5C 404.835,322.331 396.835,320.164 387.5,323C 374.508,334.971 368.341,349.805 369,367.5C 359.273,376.165 361.106,379.665 374.5,378C 381.019,384.344 388.686,386.177 397.5,383.5C 412.643,369.531 417.643,352.531 412.5,332.5C 413.451,334.118 414.784,335.451 416.5,336.5C 416.069,337.293 415.735,338.127 415.5,339C 417.042,342.978 418.042,347.145 418.5,351.5C 417.376,352.914 416.376,354.414 415.5,356C 415.833,356.333 416.167,356.667 416.5,357C 415.132,360.808 413.466,364.475 411.5,368C 411.748,369.749 412.748,370.582 414.5,370.5C 408.078,385.495 396.744,391.329 380.5,388C 378.5,386.667 376.5,385.333 374.5,384C 368.725,382.581 363.059,381.081 357.5,379.5C 341.609,388.686 324.609,394.686 306.5,397.5C 301.752,400.727 297.086,404.227 292.5,408C 287.115,408.214 281.781,408.714 276.5,409.5C 275.808,408.975 275.308,408.308 275,407.5C 273.16,408.833 272.66,408.666 273.5,407C 271.765,406.349 270.098,406.515 268.5,407.5C 263.741,404.371 258.908,401.371 254,398.5C 253.667,398.833 253.333,399.167 253,399.5C 252.761,398.212 253.261,397.212 254.5,396.5C 260.374,401.101 267.041,404.101 274.5,405.5C 279.897,407.443 285.564,407.943 291.5,407C 297.131,403.373 301.298,398.54 304,392.5C 305.583,385.42 306.416,378.254 306.5,371C 307.318,361.825 304.318,354.158 297.5,348C 289.286,341.937 281.286,342.104 273.5,348.5C 268.173,350.169 265.506,353.836 265.5,359.5C 262.273,366.049 260.106,373.049 259,380.5C 255.992,369.2 258.159,359.033 265.5,350C 262.525,348.693 259.358,347.859 256,347.5C 248.858,349.968 243.524,354.635 240,361.5C 239.308,360.975 238.808,360.308 238.5,359.5C 240.465,355.548 242.798,351.881 245.5,348.5C 252.11,343.613 259.443,342.279 267.5,344.5C 273.493,342.461 279.66,341.127 286,340.5C 288.865,340.684 291.698,341.018 294.5,341.5C 301.18,345.485 306.013,351.152 309,358.5C 310.356,369.785 310.856,381.119 310.5,392.5C 314.446,392.118 318.112,391.118 321.5,389.5C 338.565,385.552 353.398,377.552 366,365.5C 365.885,352.293 369.052,339.96 375.5,328.5C 380.868,321.53 388.035,317.863 397,317.5C 397.499,312.177 397.666,306.844 397.5,301.5 Z"/></g>
<g><path style="opacity:1" fill="#923d49" d="M 294.5,341.5 C 296.06,341.519 297.56,341.852 299,342.5C 301.402,345.197 304.236,347.363 307.5,349C 308.264,351.069 308.764,353.236 309,355.5C 309.708,356.381 310.542,357.047 311.5,357.5C 312.652,367.506 312.652,377.673 311.5,388C 311.667,389.5 312.5,390.333 314,390.5C 316.434,389.678 318.934,389.344 321.5,389.5C 318.112,391.118 314.446,392.118 310.5,392.5C 310.856,381.119 310.356,369.785 309,358.5C 306.013,351.152 301.18,345.485 294.5,341.5 Z"/></g>
<g><path style="opacity:1" fill="#873036" d="M 57.5,360.5 C 57.0843,363.406 56.4176,366.239 55.5,369C 57.1035,377.081 58.6035,377.248 60,369.5C 60.3333,369.833 60.6667,370.167 61,370.5C 62.5088,368.081 64.6755,367.081 67.5,367.5C 64.3802,371.406 62.0469,375.739 60.5,380.5C 59.209,380.263 58.209,380.596 57.5,381.5C 56.0652,380.087 55.0652,378.42 54.5,376.5C 53.7166,372.854 53.5499,369.188 54,365.5C 54.6972,363.416 55.8639,361.749 57.5,360.5 Z"/></g>
<g><path style="opacity:1" fill="#ceccd1" d="M 49.5,369.5 C 50.4716,373.568 51.9716,377.568 54,381.5C 56.7033,384.934 60.2033,386.934 64.5,387.5C 68.1857,387.792 70.8524,389.626 72.5,393C 74.2738,393.97 76.1072,394.804 78,395.5C 87.2378,391.298 96.7378,387.798 106.5,385C 116.71,384.199 126.877,383.032 137,381.5C 145.411,384.543 153.911,384.876 162.5,382.5C 192.823,396.945 224.823,403.778 258.5,403C 263.727,406.772 269.061,410.272 274.5,413.5C 198.047,418.959 122.714,412.125 48.5,393C 28.4354,384.74 28.7687,376.907 49.5,369.5 Z"/></g>
<g><path style="opacity:1" fill="#cfcdd2" d="M 416.5,368.5 C 419.439,371.918 423.106,374.418 427.5,376C 431.601,380.294 431.268,384.294 426.5,388C 400.065,398.442 372.732,405.442 344.5,409C 326.854,410.887 309.187,412.387 291.5,413.5C 297.127,408.869 302.127,403.536 306.5,397.5C 324.609,394.686 341.609,388.686 357.5,379.5C 363.059,381.081 368.725,382.581 374.5,384C 376.5,385.333 378.5,386.667 380.5,388C 396.744,391.329 408.078,385.495 414.5,370.5C 414.5,369.167 415.167,368.5 416.5,368.5 Z"/></g>
<g><path style="opacity:1" fill="#873c46" d="M 254.5,395.5 C 252.852,394.19 251.186,392.857 249.5,391.5C 248.928,393.078 248.594,394.578 248.5,396C 242.828,396.445 237.162,396.945 231.5,397.5C 226.187,396.805 220.854,396.471 215.5,396.5C 225.67,395.642 236.003,394.976 246.5,394.5C 246.5,393.167 246.5,391.833 246.5,390.5C 251.175,389.339 253.841,391.006 254.5,395.5 Z"/></g>
<g><path style="opacity:1" fill="#2e0d10" d="M 137.5,348.5 C 138.272,349.694 139.272,350.694 140.5,351.5C 140.709,352.922 141.209,354.255 142,355.5C 156.67,374.667 175.836,386.667 199.5,391.5C 200.347,392.966 201.68,393.8 203.5,394C 207.565,394.731 211.565,395.565 215.5,396.5C 220.854,396.471 226.187,396.805 231.5,397.5C 237.162,396.945 242.828,396.445 248.5,396C 248.594,394.578 248.928,393.078 249.5,391.5C 251.186,392.857 252.852,394.19 254.5,395.5C 254.5,395.833 254.5,396.167 254.5,396.5C 253.261,397.212 252.761,398.212 253,399.5C 253.333,399.167 253.667,398.833 254,398.5C 258.908,401.371 263.741,404.371 268.5,407.5C 270.098,406.515 271.765,406.349 273.5,407C 272.66,408.666 273.16,408.833 275,407.5C 275.308,408.308 275.808,408.975 276.5,409.5C 281.781,408.714 287.115,408.214 292.5,408C 297.086,404.227 301.752,400.727 306.5,397.5C 302.127,403.536 297.127,408.869 291.5,413.5C 285.833,413.5 280.167,413.5 274.5,413.5C 269.061,410.272 263.727,406.772 258.5,403C 224.823,403.778 192.823,396.945 162.5,382.5C 153.911,384.876 145.411,384.543 137,381.5C 126.877,383.032 116.71,384.199 106.5,385C 96.7378,387.798 87.2378,391.298 78,395.5C 76.1072,394.804 74.2738,393.97 72.5,393C 70.8524,389.626 68.1857,387.792 64.5,387.5C 62.1918,385.529 59.8585,383.529 57.5,381.5C 58.209,380.596 59.209,380.263 60.5,380.5C 62.2701,381.764 63.9368,383.264 65.5,385C 66.8333,385.667 68.1667,385.667 69.5,385C 71.3549,381.552 73.3549,378.219 75.5,375C 76.8333,374.333 78.1667,374.333 79.5,375C 75.7433,377.393 73.7433,380.727 73.5,385C 72.8756,389.531 74.8756,391.698 79.5,391.5C 83.9549,390.373 87.6216,388.04 90.5,384.5C 103.842,382.808 117.176,380.975 130.5,379C 137.372,377.293 142.706,373.459 146.5,367.5C 142.793,362.469 138.793,357.802 134.5,353.5C 135.759,352.021 136.759,350.354 137.5,348.5 Z"/></g>
<g><path style="opacity:1" fill="#8e2536" d="M 147.5,371.5 C 151.764,371.965 155.098,373.965 157.5,377.5C 156.975,378.192 156.308,378.692 155.5,379C 151.514,379.499 147.514,379.666 143.5,379.5C 143.343,378.127 143.51,376.793 144,375.5C 145.376,374.295 146.542,372.962 147.5,371.5 Z"/></g>
</svg>
